<?xml version="1.0" standalone="no"?>
<!DOCTYPE svg PUBLIC "-//W3C//DTD SVG 20010904//EN"
 "http://www.w3.org/TR/2001/REC-SVG-20010904/DTD/svg10.dtd">
<svg version="1.0" xmlns="http://www.w3.org/2000/svg"
 width="300" height="291" viewBox="0 0 333.000000 323.000000"
 preserveAspectRatio="xMidYMid meet">
<metadata>
Created by potrace 1.10, written by Peter Selinger 2001-2011
</metadata>
<g transform="translate(0.000000,323.000000) scale(0.100000,-0.100000)"
fill="currentColor" stroke="none">
<path d="M0 1615 l0 -1615 1665 0 1665 0 0 1615 0 1615 -1665 0 -1665 0 0
-1615z m334 1413 c3 -18 8 -68 11 -110 8 -101 26 -168 80 -294 24 -58 47 -126
50 -152 6 -47 6 -47 -49 -101 -31 -30 -57 -53 -59 -50 -2 2 -14 53 -26 113
-12 60 -40 156 -62 214 -62 163 -92 327 -70 385 10 25 15 27 65 27 54 0 55 0
60 -32z m391 7 c182 -28 559 -75 600 -75 62 0 73 -14 23 -29 -77 -23 -321
-122 -413 -168 -107 -54 -240 -143 -313 -208 -29 -26 -54 -46 -56 -44 -6 6
-66 178 -93 264 -16 53 -27 115 -30 184 l-6 104 94 -6 c52 -4 139 -14 194 -22z
m1185 -60 c122 -24 279 -70 400 -118 94 -38 105 -45 105 -67 0 -29 7 -30 150
-11 50 6 222 14 383 18 l292 6 0 -274 -1 -274 -60 -64 c-32 -35 -61 -62 -62
-60 -2 2 -20 31 -41 64 -55 85 -155 203 -177 210 -47 15 -52 -27 -8 -70 96
-93 213 -287 303 -498 l46 -108 0 -814 0 -815 -118 0 -119 0 54 108 c75 152
89 231 74 417 -12 140 -79 566 -124 788 l-24 117 28 21 c36 25 37 49 9 185
-22 107 -47 192 -62 211 -5 7 -25 13 -45 15 -33 3 -37 6 -57 63 -46 128 -132
249 -295 418 -82 85 -138 123 -264 179 -146 65 -225 84 -394 98 -229 18 -404
-5 -655 -86 -315 -101 -502 -244 -715 -544 -88 -124 -137 -210 -257 -445 -58
-115 -122 -235 -141 -265 l-35 -55 0 278 0 278 99 132 c243 322 520 576 760
696 237 119 771 299 846 285 11 -2 58 -11 105 -19z m-190 -380 c0 -2 -10 -30
-22 -62 -12 -32 -34 -101 -49 -153 -25 -87 -27 -91 -28 -51 -1 44 27 249 35
263 5 8 64 11 64 3z m-129 -40 c3 -2 -1 -42 -7 -87 -24 -156 -10 -414 26 -478
9 -15 9 -15 31 130 22 147 64 286 123 410 11 24 15 25 86 22 134 -6 464 -105
600 -179 36 -20 91 -50 124 -66 84 -44 182 -177 231 -316 l14 -40 -35 -7 c-20
-4 -38 -13 -41 -21 -7 -17 39 -256 64 -333 l18 -55 51 -5 c69 -7 87 -23 79
-69 -11 -56 -43 -110 -69 -117 -42 -10 -60 0 -83 46 -23 44 -23 44 -23 13 0
-76 90 -115 145 -63 14 13 27 22 29 19 10 -10 106 -616 116 -735 12 -137 4
-228 -25 -284 -29 -57 -181 -184 -267 -223 -68 -32 -71 -21 -12 56 65 84 128
203 150 285 25 95 23 531 -4 690 -6 41 -11 47 -32 47 l-25 0 5 -140 c3 -77 5
-232 5 -345 0 -187 -2 -211 -23 -270 -23 -68 -77 -170 -90 -170 -4 0 -13 21
-19 48 -7 26 -22 81 -33 122 -24 88 -21 143 17 263 27 87 25 110 -9 105 -19
-2 -28 -18 -51 -85 -40 -120 -44 -206 -17 -322 25 -106 23 -187 -6 -258 -16
-41 -19 -43 -60 -43 -39 0 -46 4 -72 43 -72 104 -132 263 -132 349 0 47 10 74
69 197 38 78 83 157 100 177 34 38 46 73 38 105 -3 11 3 45 14 76 63 183 64
458 3 821 -33 199 -69 272 -112 228 -15 -15 -15 -18 0 -44 20 -33 52 -186 69
-325 10 -79 10 -112 0 -165 -16 -81 -50 -211 -61 -231 -16 -30 -119 200 -240
540 l-39 107 46 53 c78 91 94 116 87 133 -13 34 -50 18 -100 -46 -27 -35 -101
-116 -164 -181 -63 -66 -116 -123 -118 -128 -2 -5 8 -14 23 -21 26 -12 30 -9
101 64 41 42 76 73 78 69 2 -3 34 -88 70 -189 37 -101 78 -208 91 -239 14 -30
25 -57 25 -59 0 -2 -26 22 -58 54 -32 32 -80 68 -107 81 -45 21 -61 23 -147
19 -113 -6 -180 -33 -248 -100 -74 -74 -68 -81 30 -30 84 43 95 46 163 45 48
0 87 -7 117 -20 57 -25 150 -110 183 -166 22 -38 71 -167 65 -172 -2 -2 -13
-6 -25 -9 -21 -7 -23 -4 -24 31 -1 85 -67 184 -166 250 -51 33 -65 38 -118 38
-49 0 -73 -7 -130 -35 -58 -29 -77 -45 -111 -95 -48 -70 -84 -161 -84 -212 0
-46 32 -112 67 -138 24 -17 41 -19 136 -16 l109 3 34 -38 34 -37 68 6 c71 6
74 5 109 -64 2 -3 -20 -11 -49 -18 -74 -19 -90 -29 -86 -54 4 -31 76 -64 170
-79 l76 -12 -18 -37 c-11 -20 -24 -66 -31 -104 -11 -66 -12 -68 -55 -86 -113
-50 -365 -89 -579 -89 -137 0 -413 29 -559 60 -55 11 -102 22 -104 25 -2 2 14
27 37 56 22 28 41 60 41 69 0 22 -64 80 -88 80 -10 0 -53 -34 -97 -76 l-80
-75 -75 37 c-58 29 -98 61 -176 139 -116 115 -154 179 -154 258 0 47 1 49 22
43 13 -4 53 -10 90 -13 75 -6 117 5 160 45 l27 24 27 -21 c18 -14 41 -21 70
-21 36 0 51 6 84 36 l41 37 128 -7 128 -7 21 48 c18 40 20 62 17 138 -6 126
-43 198 -138 271 -122 93 -202 93 -304 0 -57 -52 -105 -134 -117 -198 -4 -21
-10 -38 -13 -38 -13 0 -53 44 -54 59 0 10 -4 6 -10 -8 -6 -16 -13 -21 -20 -14
-6 6 -4 22 6 46 8 20 15 45 15 55 0 11 36 54 83 99 124 119 213 147 330 103
52 -20 165 -91 179 -114 4 -6 10 -7 13 -4 4 4 -8 35 -26 69 -42 78 -120 143
-201 167 -32 9 -58 20 -58 23 0 13 79 127 138 199 77 95 227 250 242 250 7 0
9 -8 5 -20 -11 -35 -44 -205 -40 -208 2 -2 16 4 32 14 15 10 29 18 30 18 1 1
16 64 33 141 18 77 41 164 52 192 25 67 21 98 -11 98 -21 0 -27 -9 -47 -65
-19 -55 -30 -71 -71 -101 -115 -86 -332 -337 -405 -468 -27 -49 -38 -59 -71
-68 l-40 -11 7 77 c3 42 9 99 12 127 5 43 4 52 -12 58 -30 12 -45 -17 -60
-115 -21 -145 -20 -142 -56 -135 -30 6 -30 6 -23 -26 4 -18 8 -38 8 -44 1 -7
-20 -35 -46 -63 -37 -39 -55 -51 -78 -51 -16 0 -29 -3 -29 -7 0 -5 15 -27 34
-51 l34 -42 -26 -67 c-21 -52 -33 -69 -57 -79 -49 -20 -86 -55 -106 -98 -22
-48 -25 -134 -6 -160 11 -16 11 -25 1 -55 -7 -20 -13 -54 -14 -75 0 -22 -7
-78 -16 -125 -11 -59 -15 -112 -11 -170 l6 -84 -29 28 c-16 15 -39 50 -52 79
-21 47 -23 64 -23 211 1 176 25 348 68 475 13 38 20 75 16 82 -4 8 14 68 43
141 53 135 57 138 114 117 33 -13 90 3 104 30 15 27 12 83 -5 106 -16 21 -18
11 -6 -21 11 -28 -7 -75 -33 -85 -42 -16 -116 18 -116 53 0 20 39 77 52 77 7
0 33 48 58 106 64 152 199 325 339 436 123 98 114 95 471 155 210 34 244 40
251 42 3 0 8 -1 10 -4z m1649 -567 l-1 -103 -30 64 -29 64 26 39 c15 21 28 38
30 38 2 0 4 -46 4 -102z m-333 -110 c-2 -7 3 -22 12 -32 11 -14 12 -17 2 -11
-11 6 -13 4 -8 -9 4 -10 7 -22 7 -27 0 -6 4 -7 10 -4 6 3 7 -1 4 -9 -3 -9 -2
-16 3 -16 4 0 7 -21 6 -47 -2 -33 0 -42 5 -29 8 19 9 18 15 -5 10 -37 8 -49
-8 -49 -9 0 -12 -6 -8 -16 3 -9 12 -13 22 -10 11 4 10 1 -4 -9 -12 -9 -34 -15
-54 -13 -40 3 -39 2 -75 173 l-23 110 21 7 c38 11 78 9 73 -4z m-1880 -380
c43 -21 48 -27 51 -61 2 -28 -5 -52 -28 -92 -36 -63 -51 -69 -140 -63 -72 5
-109 29 -129 82 -22 57 1 95 81 135 70 36 88 36 165 -1z m1052 -93 c73 -37 46
-136 -50 -185 -43 -22 -95 -25 -154 -9 -52 14 -75 36 -75 69 0 39 32 74 92
100 95 41 144 48 187 25z m498 -107 c-4 -51 -15 -126 -26 -167 -18 -68 -18
-76 -4 -98 25 -38 22 -95 -9 -136 -56 -72 -187 -104 -247 -60 -24 18 -65 71
-73 93 -2 6 -26 2 -56 -7 -48 -16 -56 -16 -80 -2 -49 27 -38 72 20 84 23 5 38
2 59 -14 33 -25 59 -27 59 -6 0 31 41 96 73 116 39 24 123 22 176 -4 26 -13
31 -13 21 -2 -10 12 -9 15 4 15 24 0 20 10 -20 51 -28 28 -35 43 -32 65 l4 29
12 -27 c25 -59 58 -27 93 88 12 41 25 74 27 74 3 0 2 -42 -1 -92z m-1807 32
c25 -13 15 -47 -13 -46 -33 1 -51 28 -30 44 20 15 20 14 43 2z m-164 -66 c47
-23 102 -86 110 -128 7 -40 34 -48 65 -20 27 24 92 30 112 9 24 -24 21 -62 -8
-90 -29 -30 -98 -34 -146 -10 -29 15 -31 15 -60 -9 -54 -46 -149 -59 -217 -31
-103 44 -126 137 -56 231 44 60 131 81 200 48z m242 -40 c33 -23 26 -58 -12
-62 -16 -2 -40 -11 -53 -19 -18 -12 -26 -13 -38 -3 -13 10 -12 17 5 50 27 53
57 63 98 34z m967 -39 c-2 -11 -4 -22 -4 -24 -1 -2 -8 2 -16 9 -8 6 -18 9 -24
6 -16 -10 -18 28 -2 40 21 16 51 -4 46 -31z m65 -40 c15 -18 7 -53 -21 -88
-33 -43 -84 -33 -89 18 -4 39 0 51 28 67 34 22 66 23 82 3z m-777 -42 c26 -13
45 -28 42 -33 -3 -6 -51 -10 -106 -10 -91 0 -99 2 -99 19 0 11 -3 26 -6 34
-13 34 94 28 169 -10z m915 -74 c31 -10 31 -11 15 -36 -16 -24 -19 -24 -125
-22 -60 2 -111 6 -114 10 -7 12 22 28 77 43 66 18 106 19 147 5z m392 -248 c0
-35 -13 -41 -89 -41 -43 0 -81 3 -85 7 -3 4 13 15 36 24 46 18 138 25 138 10z
m-1956 -85 c27 -36 78 -89 114 -118 l66 -53 -104 -3 c-57 -1 -109 -1 -116 2
-19 7 -34 98 -27 170 3 36 9 66 12 66 4 0 28 -29 55 -64z m558 -153 c-35 -61
-164 -185 -178 -170 -17 17 156 204 177 191 5 -3 6 -12 1 -21z m-323 -122 c32
-23 38 -40 21 -57 -6 -6 -3 -24 11 -51 17 -35 19 -47 9 -82 -13 -48 -39 -65
-87 -56 -71 13 -114 95 -93 174 12 44 34 57 78 46 l27 -6 -34 34 -33 35 35 -8
c20 -4 49 -17 66 -29z m106 -108 c12 -16 18 -16 62 -4 26 8 64 16 85 19 53 6
71 -25 76 -139 l4 -89 -166 0 c-187 0 -192 2 -135 67 27 32 30 42 28 87 -5 71
17 99 46 59z m1130 -67 c0 -67 -1 -71 -30 -87 -39 -22 -79 -34 -72 -22 4 6
-12 16 -35 22 -56 17 -88 52 -88 94 0 19 6 39 13 45 12 10 103 19 177 18 l35
-1 0 -69z m440 14 c12 -30 36 -79 53 -108 l31 -52 -144 0 c-143 0 -145 0 -161
25 -21 32 -13 62 28 102 33 32 146 95 162 90 4 -1 18 -27 31 -57z m-1270 0
c18 -28 138 -73 241 -90 75 -12 187 6 271 45 31 14 57 24 59 22 2 -1 14 -20
28 -40 28 -40 27 -83 -1 -94 -39 -15 -583 52 -604 75 -11 12 -20 92 -10 92 6
0 13 -5 16 -10z m-661 -68 c22 -20 57 -49 76 -64 l35 -28 -53 0 c-48 0 -56 4
-97 41 -50 46 -53 56 -27 75 23 18 19 19 66 -24z m1646 -82 c0 -5 -8 -10 -17
-10 -15 0 -16 2 -3 10 19 12 20 12 20 0z"/>
<path d="M1277 1879 c-19 -16 -32 -39 -37 -69 -13 -66 -24 -293 -16 -324 8
-32 37 -34 85 -5 18 11 35 18 38 15 3 -2 -4 -55 -15 -117 -11 -62 -18 -119
-15 -126 28 -72 232 68 526 359 76 76 136 142 132 148 -3 5 -18 10 -32 10 -19
0 -58 -31 -157 -127 -175 -170 -359 -323 -388 -323 -24 0 24 213 86 377 25 68
43 130 40 138 -4 8 -17 15 -29 15 -25 0 -27 -5 -86 -167 -14 -41 -34 -70 -67
-100 -26 -24 -51 -43 -56 -43 -10 0 -1 156 15 262 15 96 11 108 -24 77z"/>
<path d="M450 1753 c0 -15 26 -46 36 -42 5 2 -1 15 -13 28 -13 13 -23 20 -23
14z"/>
<path d="M1462 936 c-28 -20 -39 -22 -75 -16 -23 5 -75 10 -116 12 -61 2 -75
0 -85 -14 -8 -13 -8 -23 0 -35 7 -12 6 -31 -3 -67 -24 -88 0 -213 53 -284 38
-49 81 -72 134 -71 l45 0 -45 20 c-58 26 -86 53 -116 111 -36 71 -28 166 18
215 32 36 136 83 181 83 21 0 49 7 62 16 23 15 27 15 69 -10 81 -48 145 -152
146 -241 2 -63 18 -32 19 35 1 76 -17 119 -76 181 -86 91 -150 111 -211 65z"/>
<path d="M651 806 c-81 -86 10 -266 134 -266 57 0 95 44 94 107 l0 48 -14 -50
c-13 -48 -43 -85 -70 -85 -51 0 -128 62 -146 117 -15 46 -3 100 28 129 17 16
21 24 11 24 -8 0 -25 -11 -37 -24z"/>
<path d="M1865 580 c-8 -16 -15 -50 -15 -76 0 -41 5 -51 39 -85 30 -30 46 -39
72 -39 l34 1 -44 22 c-25 12 -53 34 -64 48 -21 29 -25 105 -7 138 6 12 8 21 6
21 -3 0 -12 -13 -21 -30z"/>
<path d="M1714 588 c-4 -7 -3 -8 4 -4 7 4 12 9 12 12 0 8 -9 4 -16 -8z"/>
<path d="M2061 545 c0 -28 -5 -65 -10 -83 -12 -42 -4 -41 14 1 10 24 12 47 6
83 l-9 49 -1 -50z"/>
<path d="M1664 538 c-4 -7 -3 -8 4 -4 7 4 12 9 12 12 0 8 -9 4 -16 -8z"/>
<path d="M620 1154 c0 -8 5 -12 10 -9 6 4 8 11 5 16 -9 14 -15 11 -15 -7z"/>
<path d="M603 1033 c4 -3 10 -3 14 0 3 4 0 7 -7 7 -7 0 -10 -3 -7 -7z"/>
<path d="M680 270 c0 -7 3 -10 7 -7 3 4 3 10 0 14 -4 3 -7 0 -7 -7z"/>
<path d="M610 230 c0 -7 3 -10 7 -7 3 4 3 10 0 14 -4 3 -7 0 -7 -7z"/>
</g>
</svg>
