<?xml version="1.0" standalone="no"?>
<!DOCTYPE svg PUBLIC "-//W3C//DTD SVG 20010904//EN"
 "http://www.w3.org/TR/2001/REC-SVG-20010904/DTD/svg10.dtd">
<svg version="1.0" xmlns="http://www.w3.org/2000/svg"
 width="300" height="291" viewBox="0 0 999.000000 969.000000"
 preserveAspectRatio="xMidYMid meet">
<metadata>
Created by potrace 1.10, written by Peter Selinger 2001-2011
</metadata>
<g transform="translate(0.000000,969.000000) scale(0.100000,-0.100000)"
fill="currentColor" stroke="none">
<path d="M0 4845 l0 -4845 4995 0 4995 0 0 4845 0 4845 -4995 0 -4995 0 0
-4845z m992 4265 c5 -36 15 -153 23 -260 31 -396 60 -531 170 -800 26 -63 54
-132 61 -153 8 -20 18 -45 23 -55 14 -25 56 -119 81 -182 12 -30 28 -70 36
-88 8 -18 14 -45 14 -60 0 -15 7 -59 15 -97 30 -142 36 -129 -148 -313 -89
-89 -167 -162 -174 -162 -14 0 -23 24 -23 63 0 53 -94 485 -137 632 -25 83
-73 218 -88 248 -8 16 -15 35 -15 44 0 8 -6 27 -14 41 -13 25 -22 49 -58 147
-26 71 -40 109 -48 140 -5 17 -13 44 -19 60 -18 53 -39 147 -55 245 -52 312
-47 549 10 587 29 18 139 31 254 29 l85 -1 7 -65z m633 49 c50 -5 131 -14 180
-18 50 -5 124 -14 165 -20 41 -6 109 -15 150 -21 41 -6 109 -15 150 -20 41 -5
91 -14 110 -20 19 -5 55 -10 80 -10 25 -1 72 -7 105 -15 33 -8 83 -15 110 -15
28 0 77 -7 110 -15 33 -8 80 -14 105 -15 24 0 87 -6 140 -14 111 -17 258 -37
315 -42 22 -2 87 -11 145 -19 182 -25 280 -35 449 -46 160 -10 211 -19 211
-38 0 -5 -48 -25 -107 -45 -157 -53 -410 -148 -633 -237 -381 -152 -534 -224
-898 -421 -65 -35 -315 -199 -382 -250 -14 -11 -56 -42 -95 -70 -38 -29 -72
-54 -75 -58 -3 -3 -34 -30 -69 -60 -36 -30 -91 -80 -124 -110 -32 -30 -65 -58
-72 -63 -18 -10 -30 14 -40 73 -4 25 -13 61 -20 80 -7 19 -20 62 -30 95 -9 33
-23 74 -30 90 -7 17 -20 50 -30 75 -10 25 -26 63 -36 85 -86 203 -161 496
-194 760 -15 121 -21 376 -8 388 10 10 217 8 318 -4z m3840 -199 c71 -9 138
-21 255 -45 36 -7 103 -21 150 -30 87 -17 167 -36 255 -61 28 -7 86 -23 130
-34 85 -21 160 -43 185 -53 8 -3 31 -10 50 -16 115 -32 530 -190 684 -260 59
-28 68 -35 63 -54 -20 -90 -21 -85 12 -118 35 -35 39 -35 166 -5 125 29 167
36 224 36 31 1 76 5 101 11 25 5 173 14 330 19 157 6 328 14 380 20 190 20
453 29 842 30 219 1 402 -1 408 -5 7 -4 10 -281 10 -817 l0 -810 -98 -101
c-115 -121 -101 -105 -182 -206 -36 -44 -70 -80 -76 -81 -6 0 -38 44 -69 98
-106 177 -199 302 -441 588 -127 150 -194 185 -249 129 -18 -17 -25 -35 -25
-60 0 -31 8 -45 55 -91 53 -53 79 -84 262 -312 91 -113 237 -324 250 -359 3
-10 12 -25 18 -33 33 -40 276 -516 345 -675 41 -96 81 -188 100 -230 5 -11 32
-74 59 -141 l51 -120 -2 -2440 -3 -2439 -345 -2 c-203 -2 -351 1 -360 7 -12 8
-11 12 6 32 57 63 195 323 257 483 76 195 106 312 137 538 12 89 2 397 -21
597 -5 47 -16 153 -24 235 -8 83 -16 157 -19 165 -3 8 -10 51 -15 95 -6 44
-17 121 -26 170 -9 50 -22 126 -30 170 -7 44 -27 161 -44 260 -17 99 -35 209
-40 245 -5 36 -17 108 -25 160 -39 230 -77 449 -85 490 -5 25 -17 83 -26 130
-18 93 -28 143 -75 363 -17 81 -28 152 -25 157 4 6 31 24 61 41 59 34 101 77
110 115 8 33 -1 142 -19 234 -72 361 -88 430 -148 640 -43 148 -73 210 -114
239 -34 23 -37 23 -111 11 -64 -11 -77 -11 -89 1 -8 8 -34 75 -59 150 -24 75
-49 145 -55 155 -6 11 -26 53 -44 94 -19 41 -59 117 -90 168 -32 51 -57 95
-57 97 0 6 -127 192 -140 205 -3 3 -48 55 -100 115 -342 397 -570 630 -732
751 -112 83 -248 157 -403 219 -101 40 -126 51 -240 104 -44 21 -100 46 -125
55 -25 10 -60 24 -78 32 -18 8 -39 14 -46 14 -8 0 -36 6 -62 14 -112 33 -299
70 -429 86 -117 14 -524 40 -640 41 -287 2 -776 -46 -930 -91 -16 -5 -48 -12
-70 -15 -104 -18 -616 -169 -820 -242 -625 -226 -1203 -633 -1593 -1123 -41
-52 -80 -100 -86 -105 -16 -15 -132 -168 -137 -181 -2 -6 -17 -26 -32 -45 -30
-37 -209 -291 -242 -344 -86 -138 -239 -391 -265 -440 -18 -33 -49 -89 -69
-125 -20 -36 -51 -94 -68 -130 -17 -36 -61 -126 -97 -200 -35 -74 -90 -181
-120 -238 -31 -57 -112 -214 -182 -350 -69 -136 -131 -254 -137 -262 -7 -8
-21 -31 -31 -50 -11 -19 -43 -71 -71 -115 -28 -44 -57 -90 -64 -103 -7 -12
-16 -20 -22 -17 -15 10 -11 1625 4 1650 7 11 67 95 135 185 68 91 137 184 155
208 99 133 231 301 298 381 30 36 70 86 88 110 51 71 359 397 493 521 68 63
182 172 253 241 150 147 252 242 299 278 18 14 57 45 87 69 30 23 63 50 74 58
17 13 91 64 179 124 22 15 93 62 193 127 202 132 820 415 1223 558 36 13 117
42 180 65 203 73 419 146 665 224 132 42 254 81 270 87 17 6 46 14 65 18 19 5
53 13 75 19 22 6 76 17 120 26 44 8 103 19 130 24 28 6 64 8 80 5 17 -2 62 -8
100 -13z m-341 -1176 c24 -9 20 -40 -25 -154 -22 -58 -63 -173 -90 -256 -48
-147 -64 -203 -117 -409 -29 -113 -29 -112 -42 -99 -19 19 19 423 61 659 46
260 49 265 136 265 34 0 68 -3 77 -6z m-350 -140 c3 -9 2 -33 -3 -53 -11 -38
-41 -245 -63 -426 -17 -143 -17 -571 0 -690 21 -152 81 -448 98 -492 17 -44
37 -55 48 -28 3 8 10 55 16 103 31 244 71 487 105 627 8 33 21 87 29 120 39
162 76 289 110 375 20 52 49 127 63 165 15 39 32 77 38 85 6 8 17 34 23 57 20
67 62 152 81 163 18 9 130 7 338 -6 137 -8 344 -54 598 -134 55 -17 137 -42
182 -55 46 -13 88 -27 95 -31 6 -4 35 -13 62 -20 28 -7 107 -33 176 -57 391
-140 506 -191 755 -341 39 -23 111 -61 160 -85 127 -61 182 -98 241 -161 150
-161 241 -298 383 -579 74 -146 139 -317 125 -330 -10 -11 -121 -41 -150 -41
-41 0 -84 -34 -84 -66 0 -13 9 -66 19 -117 21 -97 66 -335 77 -402 7 -47 58
-267 80 -345 87 -314 71 -295 234 -295 109 0 118 -2 169 -30 42 -23 59 -39 73
-73 19 -43 19 -44 -2 -137 -52 -229 -165 -361 -292 -341 -90 14 -142 72 -189
209 -26 77 -39 72 -39 -17 0 -73 45 -173 94 -211 113 -86 251 -69 365 45 29
29 56 49 60 44 5 -5 18 -63 30 -129 12 -66 26 -136 31 -155 4 -19 16 -82 25
-140 9 -58 23 -143 30 -190 8 -47 24 -143 35 -215 11 -71 25 -155 30 -185 11
-60 47 -270 85 -505 14 -82 30 -177 35 -210 26 -156 70 -694 70 -852 0 -165
-41 -372 -96 -489 -29 -63 -51 -88 -191 -222 -87 -83 -180 -169 -208 -191 -74
-60 -266 -188 -308 -206 -21 -8 -61 -30 -89 -47 -45 -28 -62 -32 -137 -36
l-86 -4 66 68 c63 65 211 256 273 353 102 158 216 392 269 551 85 254 103 610
72 1370 -22 516 -53 875 -81 918 -36 55 -119 53 -155 -4 -21 -34 -21 -38 -10
-187 6 -84 15 -197 20 -252 25 -270 35 -560 36 -980 0 -387 -3 -478 -17 -575
-18 -118 -51 -240 -95 -345 -59 -144 -201 -400 -231 -419 -17 -10 -32 20 -47
95 -8 41 -23 101 -34 134 -80 246 -131 462 -131 555 1 133 44 357 100 515 47
132 62 185 67 232 4 37 1 46 -25 73 -38 38 -89 41 -126 7 -44 -38 -163 -414
-186 -590 -37 -269 -31 -347 49 -672 67 -272 72 -419 22 -578 -42 -134 -91
-261 -103 -269 -15 -9 -192 -11 -237 -2 -27 6 -43 22 -90 93 -115 171 -216
369 -307 601 -21 54 -71 217 -89 295 -25 102 -23 269 5 360 12 39 92 214 179
390 87 176 170 350 185 386 22 51 41 77 86 117 108 95 167 222 157 335 -3 32
-10 64 -16 70 -15 15 -14 37 3 56 15 18 72 195 110 341 34 130 63 293 77 430
16 147 16 548 1 710 -7 69 -19 211 -27 315 -22 277 -42 443 -81 690 -78 485
-141 720 -211 787 -43 41 -77 51 -117 34 -69 -29 -84 -88 -38 -152 46 -64 89
-212 132 -454 66 -372 91 -548 110 -787 l12 -143 -26 -31 c-18 -21 -26 -42
-26 -68 0 -53 -26 -198 -51 -284 -12 -40 -34 -119 -50 -177 -62 -229 -73 -260
-88 -260 -10 0 -104 169 -116 210 -4 14 -30 63 -56 109 -27 47 -49 91 -49 98
0 12 -28 79 -115 268 -68 150 -168 412 -256 670 -12 33 -34 94 -50 135 -52
137 -137 374 -154 433 l-18 57 64 73 c35 39 74 83 87 97 13 14 51 61 84 105
34 44 73 94 89 110 47 51 79 107 79 136 0 15 -12 41 -26 58 -21 26 -33 31 -69
31 -26 0 -51 -7 -63 -17 -11 -10 -69 -79 -128 -153 -115 -144 -204 -248 -269
-315 -22 -23 -169 -172 -327 -332 -159 -160 -288 -293 -288 -296 0 -23 21 -42
75 -68 34 -16 68 -29 76 -29 8 0 113 99 233 219 132 133 223 218 231 214 8 -2
17 -19 21 -36 3 -17 10 -38 15 -47 11 -19 45 -111 153 -415 127 -357 299 -805
337 -876 4 -9 17 -39 28 -68 30 -73 6 -67 -54 17 -27 37 -76 94 -110 126 -60
59 -207 176 -221 176 -4 0 -15 7 -24 15 -25 23 -131 75 -152 75 -10 0 -30 7
-44 16 -35 24 -441 23 -497 -1 -20 -8 -53 -15 -74 -15 -21 -1 -49 -7 -63 -15
-14 -8 -36 -15 -50 -15 -14 0 -34 -7 -44 -15 -11 -8 -25 -15 -32 -15 -21 0
-173 -96 -240 -151 -95 -78 -234 -242 -234 -276 0 -20 19 -16 69 16 175 112
402 215 506 230 28 5 77 14 110 21 53 11 70 11 134 -3 40 -10 91 -17 113 -17
22 0 52 -6 66 -14 50 -26 103 -46 119 -46 19 0 96 -47 178 -108 88 -66 282
-267 333 -346 53 -81 120 -224 152 -321 13 -38 29 -85 36 -103 8 -18 14 -42
14 -53 0 -11 7 -33 15 -49 17 -33 14 -37 -44 -46 -23 -4 -44 -11 -47 -15 -9
-15 -41 -10 -48 7 -3 9 -6 49 -6 89 0 113 -66 310 -138 410 -98 136 -188 227
-290 296 -41 26 -90 63 -110 80 -40 36 -127 79 -158 79 -11 0 -25 5 -31 11 -6
6 -52 14 -101 17 -94 5 -107 2 -257 -54 -33 -12 -71 -25 -85 -29 -44 -13 -157
-72 -217 -113 -86 -60 -128 -103 -158 -162 -15 -30 -51 -86 -81 -125 -30 -40
-73 -114 -95 -166 -86 -197 -101 -256 -103 -394 -2 -184 50 -299 181 -405 102
-83 104 -83 267 -70 141 11 484 9 505 -4 6 -4 25 -28 43 -54 60 -88 118 -126
213 -142 66 -11 210 3 262 25 49 21 64 13 91 -43 13 -27 43 -71 68 -97 65 -71
63 -74 -81 -118 -27 -8 -77 -22 -110 -31 -126 -35 -141 -41 -169 -69 -25 -25
-28 -32 -22 -70 4 -23 16 -52 28 -64 36 -38 224 -122 318 -142 25 -5 63 -14
85 -20 22 -6 92 -13 155 -16 137 -7 160 -11 160 -28 0 -6 -21 -55 -46 -107
-70 -145 -100 -254 -111 -412 l-6 -89 -80 -41 c-161 -80 -388 -156 -567 -188
-152 -28 -262 -43 -325 -44 -38 -1 -95 -8 -126 -14 -71 -16 -316 -39 -538 -52
-350 -21 -1029 28 -1581 114 -112 17 -359 64 -380 72 -8 3 -61 14 -118 25
-127 25 -152 34 -152 56 0 9 11 28 24 42 13 15 37 45 52 67 16 23 51 70 78
104 99 126 97 172 -13 279 -96 93 -125 111 -180 111 -40 0 -49 -5 -125 -77
-44 -42 -110 -100 -146 -128 -70 -57 -176 -164 -204 -207 -10 -15 -26 -30 -35
-33 -19 -6 -210 75 -279 119 -23 14 -44 26 -47 26 -6 0 -30 16 -140 95 -182
129 -465 406 -577 565 -137 192 -198 343 -198 486 0 121 23 158 84 134 102
-39 327 -64 434 -49 138 20 269 84 351 173 32 34 50 33 97 -5 81 -65 110 -74
224 -74 147 0 222 35 302 141 22 30 49 59 58 64 18 10 510 -13 644 -30 108
-14 110 -14 140 17 33 33 92 153 110 225 30 116 15 467 -25 618 -58 215 -207
406 -417 535 -35 21 -68 47 -73 56 -12 24 -82 63 -144 82 -27 8 -85 25 -127
37 -76 23 -77 23 -163 6 -47 -10 -106 -26 -130 -36 -85 -37 -191 -118 -305
-236 -109 -113 -119 -127 -182 -254 -66 -130 -74 -155 -98 -285 -7 -33 -14
-70 -16 -82 -7 -35 -35 -28 -100 23 -63 49 -72 62 -73 111 -2 75 -24 83 -41
13 -13 -53 -31 -76 -55 -66 -36 13 -27 65 31 192 15 32 24 69 24 101 0 66 22
95 219 292 215 217 317 283 564 366 59 20 92 25 181 25 105 0 116 -2 245 -46
120 -42 156 -60 306 -156 96 -61 197 -134 232 -168 34 -33 66 -60 72 -60 15 0
14 31 -2 55 -7 11 -28 56 -47 100 -18 44 -38 87 -44 95 -6 8 -20 31 -30 50
-56 104 -180 221 -360 338 -56 36 -113 62 -190 87 -60 19 -118 35 -129 35 -23
0 -57 18 -57 30 0 26 181 318 235 379 17 20 53 65 80 101 75 99 223 275 311
370 28 30 111 120 185 199 137 146 304 301 326 301 27 0 26 -15 -23 -225 -20
-84 -84 -426 -84 -447 0 -26 42 -23 68 5 11 12 46 36 77 52 39 21 57 37 61 55
3 14 9 45 14 70 21 106 132 600 147 650 19 67 82 260 117 355 46 125 26 199
-54 211 -63 9 -92 -19 -128 -127 -101 -305 -88 -286 -253 -399 -124 -85 -405
-365 -709 -705 -112 -125 -255 -313 -352 -460 -129 -199 -161 -249 -190 -311
-16 -34 -38 -71 -48 -81 -20 -22 -198 -70 -224 -60 -10 4 -16 18 -16 39 0 50
19 256 30 323 5 33 19 118 30 188 12 71 18 141 15 157 -17 76 -127 99 -169 35
-17 -26 -54 -225 -80 -431 -29 -226 -46 -286 -84 -298 -10 -4 -42 -2 -72 4
-71 13 -78 13 -84 -8 -5 -16 21 -107 54 -187 13 -31 12 -32 -80 -125 -51 -52
-111 -118 -132 -147 -46 -60 -82 -76 -172 -75 -57 1 -96 -10 -96 -27 0 -10
118 -167 155 -207 43 -46 59 -83 46 -108 -16 -33 -56 -132 -101 -251 -22 -59
-45 -114 -51 -121 -5 -7 -40 -22 -77 -33 -134 -40 -243 -134 -309 -265 -59
-117 -76 -187 -76 -311 0 -115 10 -149 65 -228 l20 -27 -32 -77 c-30 -72 -33
-89 -41 -243 -4 -91 -13 -181 -19 -200 -44 -138 -72 -340 -77 -553 -4 -149 -1
-200 11 -250 17 -68 21 -127 8 -127 -16 0 -115 95 -153 146 -44 60 -88 149
-117 239 -42 128 -47 187 -47 515 1 360 8 441 80 875 56 336 113 563 175 700
32 71 34 91 10 140 -20 40 -21 49 -9 78 7 18 16 37 21 43 4 6 23 54 42 105 19
52 47 126 63 164 16 39 38 95 48 125 11 30 25 62 32 71 7 8 13 23 13 32 0 9
18 55 40 102 l40 85 47 -7 c27 -3 57 -10 68 -16 32 -17 106 -30 170 -30 111 0
188 51 226 148 19 50 16 194 -5 235 -23 44 -56 80 -73 80 -17 0 -17 0 12 -57
50 -97 27 -213 -58 -292 -22 -20 -37 -24 -94 -24 -83 -1 -135 13 -196 54 -87
57 -97 113 -41 223 44 88 58 102 120 124 40 15 48 22 46 39 -3 18 23 78 124
288 13 28 24 54 24 58 0 4 11 31 25 59 14 29 30 71 36 93 15 55 188 303 359
515 79 98 294 342 322 365 7 6 51 46 98 89 144 133 393 317 505 373 83 42 202
75 320 88 112 13 247 37 392 71 34 8 77 14 95 14 18 0 49 4 68 10 31 8 129 23
400 60 130 18 183 29 260 50 66 19 178 34 276 39 21 1 34 -5 38 -15z m4936
-1667 c0 -152 -4 -279 -10 -287 -7 -11 -14 -3 -31 35 -12 28 -46 101 -75 164
-30 62 -54 123 -54 135 0 23 9 38 93 155 32 45 63 79 68 76 5 -4 9 -123 9
-278z m-992 -329 c7 -7 12 -21 12 -32 0 -16 -2 -18 -9 -7 -10 16 -31 6 -31
-16 0 -8 9 -26 20 -40 12 -16 20 -41 20 -65 0 -23 5 -41 13 -44 8 -3 12 -16 9
-34 -8 -59 35 -134 54 -92 6 14 8 13 13 -8 4 -14 5 -35 3 -48 -4 -21 -5 -21
-17 -5 -11 15 -12 7 -9 -47 5 -92 21 -208 31 -222 5 -8 10 23 13 72 5 76 6 81
13 45 5 -22 15 -52 23 -67 8 -14 14 -47 14 -73 0 -46 0 -46 -32 -43 -28 3 -34
-1 -36 -20 -5 -34 24 -72 53 -72 16 0 25 6 25 16 0 8 5 12 10 9 16 -10 11 -45
-7 -51 -10 -4 -32 -12 -48 -20 -38 -16 -196 -37 -219 -28 -9 3 -19 18 -22 33
-3 14 -11 49 -18 76 -8 28 -22 79 -31 115 -10 36 -23 85 -30 110 -15 52 -62
287 -80 407 -7 45 -16 91 -20 102 -9 30 20 40 150 50 61 4 112 9 116 10 3 0
10 -4 17 -11z m39 -155 c-4 -17 -4 -17 -12 0 -4 9 -4 25 0 35 8 16 8 16 12 0
3 -10 3 -26 0 -35z m35 -93 c3 -17 1 -33 -4 -36 -4 -3 -8 11 -8 30 0 44 6 47
12 6z m-5814 -868 c37 -17 89 -38 116 -47 105 -38 154 -116 142 -226 -10 -87
-46 -168 -124 -284 -93 -137 -100 -140 -307 -140 -164 1 -239 12 -305 45 -148
76 -232 281 -170 413 35 74 141 156 304 235 106 51 233 53 344 4z m3213 -307
c115 -41 159 -101 159 -217 0 -91 -22 -157 -74 -215 -46 -52 -161 -131 -261
-179 -63 -31 -77 -34 -160 -34 -56 1 -105 7 -130 16 -22 9 -71 22 -110 29
-122 23 -173 52 -205 115 -40 79 -19 182 55 268 48 55 88 80 201 126 51 20
118 48 149 62 99 43 293 58 376 29z m1536 -259 c-9 -234 -29 -369 -83 -576
-14 -52 -30 -114 -35 -137 -6 -23 -17 -47 -25 -54 -20 -16 -18 -33 7 -55 51
-46 98 -167 99 -255 1 -103 -89 -243 -210 -326 -253 -172 -536 -170 -704 7
-53 55 -97 128 -110 182 -9 38 -50 64 -79 51 -12 -6 -42 -18 -67 -28 -25 -9
-64 -25 -88 -36 -82 -37 -191 -15 -258 50 -40 40 -48 61 -39 107 8 45 62 85
148 108 59 16 68 16 118 2 36 -11 74 -33 112 -66 35 -30 68 -50 83 -50 36 0
49 25 81 159 12 49 86 162 131 201 102 87 214 118 357 100 96 -13 162 -33 248
-74 40 -20 77 -36 83 -36 10 0 -41 46 -59 54 -20 8 15 26 51 26 60 0 43 35
-84 166 l-84 87 0 85 0 85 20 -26 c11 -14 23 -39 26 -57 11 -53 69 -75 128
-49 44 21 106 162 173 399 39 140 40 143 55 134 8 -5 9 -60 5 -178z m-5460 38
c3 -9 25 -24 49 -35 43 -18 54 -32 34 -44 -5 -3 -10 -24 -10 -46 0 -43 -2 -44
-48 -28 -25 9 -38 7 -63 -5 -37 -18 -49 -14 -42 15 4 15 -3 28 -27 48 -39 33
-36 56 9 66 17 4 36 15 41 26 13 23 48 25 57 3z m-532 -189 c120 -40 269 -158
340 -268 39 -62 75 -173 75 -232 l0 -35 63 0 c59 0 65 2 98 36 46 49 97 70
200 84 107 14 144 2 185 -60 48 -73 29 -173 -48 -250 -51 -52 -83 -60 -226
-60 -142 0 -173 7 -247 57 -27 18 -52 33 -55 33 -3 0 -34 -27 -68 -61 -215
-208 -648 -212 -855 -6 -91 90 -131 228 -102 353 27 116 85 220 160 287 37 32
134 97 162 108 110 42 219 47 318 14z m741 -110 c10 -8 26 -15 35 -15 25 0 66
-41 83 -82 33 -78 -12 -137 -104 -138 -58 -1 -109 -19 -157 -57 -34 -27 -109
-51 -97 -31 6 10 -15 50 -35 64 -13 10 -13 14 2 37 9 15 17 33 17 40 0 40 88
167 116 167 6 0 17 7 24 15 16 19 90 20 116 0z m2898 -60 c9 -14 24 -25 34
-25 9 0 24 -4 32 -10 12 -7 12 -12 0 -35 -10 -19 -11 -31 -4 -43 14 -21 8 -39
-17 -52 -21 -12 -59 6 -59 27 0 21 -20 25 -46 8 -35 -23 -58 -13 -50 21 4 16
1 35 -8 49 -17 25 -12 35 16 35 10 0 28 11 40 25 12 14 27 25 34 25 6 0 19
-11 28 -25z m200 -180 c11 -8 26 -15 33 -15 23 0 62 -53 63 -83 0 -59 -95
-217 -162 -266 -62 -46 -114 -44 -168 7 -32 32 -40 46 -40 75 0 20 -5 47 -11
59 -16 37 27 119 89 168 27 22 56 40 63 40 8 1 25 7 39 15 32 18 70 18 94 0z
m-2884 -5 c0 -5 -7 -10 -15 -10 -8 0 -15 5 -15 10 0 6 7 10 15 10 8 0 15 -4
15 -10z m472 -86 c15 -8 33 -14 41 -14 8 0 20 -7 27 -15 7 -8 19 -15 27 -15 8
0 32 -13 53 -30 21 -16 45 -30 53 -30 9 0 19 -5 22 -11 4 -5 18 -14 31 -19 28
-11 31 -32 7 -51 -12 -11 -81 -15 -305 -19 -159 -3 -296 -1 -304 3 -10 6 -14
27 -14 70 -1 35 -7 73 -15 87 -29 50 -21 59 53 63 115 6 295 -5 324 -19z
m2835 -287 c82 -30 105 -36 118 -31 30 12 23 -19 -20 -78 -69 -97 -61 -91
-127 -84 -85 10 -529 25 -545 19 -17 -7 -63 23 -63 41 0 29 143 88 295 121 44
9 85 19 90 20 31 10 219 3 252 -8z m1228 -726 c9 -15 -47 -142 -68 -153 -28
-14 -359 -4 -421 13 -57 16 -70 35 -29 45 15 3 75 24 133 47 100 38 110 40
222 42 65 0 120 4 124 8 10 10 32 9 39 -2z m-5966 -158 c95 -143 122 -177 189
-252 37 -40 71 -79 75 -87 4 -7 29 -28 55 -45 26 -18 54 -39 63 -48 9 -9 40
-36 69 -61 29 -25 62 -53 74 -64 12 -10 40 -32 64 -49 23 -17 42 -37 42 -45 0
-11 -9 -12 -42 -6 -24 5 -119 6 -213 4 -356 -9 -380 -8 -409 19 -14 13 -32 45
-41 70 -21 64 -45 206 -45 267 0 58 27 329 36 357 10 32 31 17 83 -60z m1769
-525 c7 -7 12 -18 12 -25 0 -12 -93 -145 -123 -174 -7 -8 -30 -36 -51 -64
-101 -132 -314 -319 -358 -313 -42 6 -33 40 35 124 35 43 88 113 119 154 30
42 70 88 89 104 43 36 152 131 198 173 38 35 60 40 79 21z m-1171 -337 c98
-24 106 -27 173 -70 70 -44 130 -100 130 -121 0 -9 -18 -33 -40 -55 -43 -42
-42 -53 6 -105 45 -49 68 -118 68 -205 -1 -127 -32 -204 -101 -251 -87 -59
-247 -27 -351 70 -113 105 -156 344 -88 492 27 59 50 77 117 95 41 11 50 10
91 -9 106 -52 103 -16 -7 84 -75 69 -96 94 -81 94 3 0 40 -9 83 -19z m1063
-376 c96 -71 125 -176 125 -458 0 -165 -2 -199 -15 -207 -9 -6 -207 -10 -488
-10 -530 0 -490 -7 -477 78 6 41 15 54 71 107 50 47 68 72 84 117 31 89 35
156 15 241 -17 71 -17 75 1 101 36 57 87 54 144 -6 33 -34 42 -38 88 -38 29 0
71 9 99 21 187 81 295 97 353 54z m2828 -38 c13 -13 27 -39 32 -58 12 -39 14
-242 3 -253 -4 -4 -8 -22 -9 -39 -1 -17 -7 -33 -13 -35 -6 -2 -18 -16 -26 -31
-22 -44 -198 -121 -275 -121 -26 0 -26 17 0 25 31 10 17 20 -47 34 -118 27
-216 74 -264 127 -52 59 -59 78 -59 171 0 100 8 118 67 155 36 22 46 23 193
20 113 -1 167 2 200 12 25 8 75 15 111 15 56 1 69 -2 87 -22z m1260 11 c5 -7
26 -56 47 -108 46 -118 178 -377 235 -460 23 -34 39 -65 35 -68 -11 -12 -818
-14 -847 -3 -17 6 -39 31 -57 63 -44 75 -44 152 0 219 61 96 217 212 396 294
54 25 112 52 128 60 38 18 50 18 63 3z m-3715 -186 c132 -98 321 -174 598
-240 75 -19 279 -34 354 -27 201 18 471 92 628 173 62 31 115 58 119 60 5 2
11 -5 14 -15 22 -65 63 -135 105 -175 27 -26 49 -51 49 -56 0 -18 -62 -157
-76 -171 -11 -13 -37 -13 -176 -3 -720 54 -1032 88 -1333 147 -44 9 -104 20
-133 25 -29 5 -68 14 -85 19 -18 6 -52 16 -77 23 l-45 13 -6 70 c-3 39 -10 98
-14 133 -9 77 1 80 78 24z m-2066 -123 c82 -88 333 -295 378 -313 46 -17 -17
-27 -154 -24 l-137 3 -61 49 c-88 71 -223 210 -223 229 0 20 107 96 137 96 13
1 37 -16 60 -40z m4998 -314 c0 -23 -43 -33 -71 -17 -15 8 -14 12 12 26 37 20
59 16 59 -9z"/>
<path d="M3885 5678 c-35 -20 -155 -118 -155 -127 0 -5 -6 -46 -14 -92 -41
-240 -80 -711 -75 -894 4 -108 6 -123 28 -152 30 -40 70 -57 113 -48 43 10
131 54 193 99 84 60 87 54 55 -107 -73 -369 -102 -551 -94 -585 19 -77 105
-112 189 -76 70 29 327 189 440 273 121 91 422 348 600 514 167 155 701 690
740 742 27 34 27 37 11 53 -12 13 -39 18 -101 21 l-84 3 -260 -258 c-418 -416
-583 -569 -859 -795 -119 -98 -228 -180 -287 -216 -185 -114 -179 -113 -170
-40 9 69 41 260 54 317 5 25 17 79 26 120 9 41 22 95 30 120 7 25 20 74 30
110 25 94 69 221 147 425 140 363 141 370 113 424 -16 32 -33 41 -76 41 -59 0
-88 -34 -127 -146 -18 -52 -29 -81 -61 -159 -31 -75 -71 -183 -71 -189 0 -4
-6 -22 -14 -39 -8 -18 -25 -63 -37 -102 -16 -49 -34 -81 -59 -105 -58 -58
-241 -195 -259 -195 -22 0 -25 47 -12 240 19 268 37 435 82 721 16 106 9 128
-36 102z"/>
<path d="M1350 5243 c0 -64 50 -116 107 -111 l36 3 -47 24 c-26 13 -50 31 -53
40 -17 53 -43 80 -43 44z"/>
<path d="M4517 2869 c-52 -12 -92 -34 -160 -86 -63 -49 -81 -52 -177 -33 -30
6 -125 15 -211 20 -109 7 -172 16 -214 30 -32 11 -78 20 -103 20 -38 0 -49 -5
-78 -35 -58 -62 -62 -115 -14 -175 l20 -25 -20 -59 c-103 -301 -41 -716 143
-947 61 -76 142 -143 213 -176 47 -21 78 -28 151 -31 97 -5 152 3 137 18 -5 5
-41 21 -79 35 -97 36 -190 94 -255 158 -42 41 -71 84 -120 181 -74 147 -81
186 -60 351 22 182 65 267 176 354 72 56 198 122 307 160 75 26 103 31 185 31
97 0 97 0 156 40 67 45 99 49 163 20 197 -89 397 -332 484 -585 20 -58 24 -90
24 -188 0 -64 3 -117 8 -117 4 0 7 9 7 20 0 12 8 35 18 53 14 26 17 56 16 167
-3 260 -64 393 -271 591 -165 158 -330 235 -446 208z"/>
<path d="M2028 2478 c-51 -13 -119 -89 -148 -164 -32 -81 -39 -222 -15 -296
62 -189 192 -334 350 -390 73 -27 206 -24 265 5 112 55 187 245 149 381 -6 21
-14 34 -18 30 -5 -5 -14 -45 -21 -89 -34 -222 -129 -303 -310 -264 -83 18
-153 62 -230 146 -72 78 -108 145 -126 239 -26 140 13 265 111 349 75 63 73
74 -7 53z"/>
<path d="M2337 2271 c18 -46 36 -55 31 -15 -2 15 -13 33 -25 41 l-22 15 16
-41z"/>
<path d="M5621 1794 c-11 -14 -35 -56 -53 -93 -30 -62 -32 -73 -32 -176 -1
-106 0 -112 32 -174 44 -84 116 -155 197 -193 75 -35 129 -44 168 -29 45 18
33 36 -35 50 -201 41 -339 239 -307 441 11 71 36 158 52 178 5 7 7 15 5 18 -3
3 -15 -7 -27 -22z"/>
<path d="M2325 1780 c-3 -6 5 -10 19 -10 14 0 28 5 31 10 3 6 -5 10 -19 10
-14 0 -28 -4 -31 -10z"/>
<path d="M6176 1667 c6 -86 3 -123 -16 -218 -12 -62 -29 -126 -36 -141 -9 -17
-10 -29 -4 -33 6 -3 10 -2 10 4 0 5 6 16 13 23 23 23 53 91 67 150 10 44 11
73 2 130 -6 40 -14 99 -17 131 -4 31 -11 57 -16 57 -6 0 -7 -39 -3 -103z"/>
<path d="M5937 1504 c-4 -4 -7 -17 -7 -28 1 -19 1 -20 11 -3 11 19 8 43 -4 31z"/>
<path d="M1860 3455 c0 -40 9 -44 35 -15 15 16 15 22 5 35 -22 27 -40 18 -40
-20z"/>
<path d="M1637 3423 c-4 -3 -7 -13 -7 -21 0 -12 3 -12 15 -2 8 7 15 16 15 21
0 11 -14 12 -23 2z"/>
<path d="M1567 3296 c-4 -10 -5 -21 -2 -24 9 -9 17 6 13 25 -3 17 -4 17 -11
-1z"/>
<path d="M1940 3230 c0 -19 3 -21 12 -12 9 9 9 15 0 24 -9 9 -12 7 -12 -12z"/>
<path d="M1415 3151 c-21 -4 -31 -13 -33 -29 -2 -15 2 -22 12 -22 9 0 16 6 16
14 0 8 14 17 30 21 17 4 30 11 30 16 0 10 -10 10 -55 0z"/>
<path d="M1800 3096 c0 -25 17 -27 41 -6 l24 19 -32 1 c-22 0 -33 -5 -33 -14z"/>
<path d="M1548 3013 c12 -2 30 -2 40 0 9 3 -1 5 -23 4 -22 0 -30 -2 -17 -4z"/>
<path d="M1750 865 c0 -8 5 -15 10 -15 6 0 10 7 10 15 0 8 -4 15 -10 15 -5 0
-10 -7 -10 -15z"/>
<path d="M2040 811 c0 -17 4 -32 9 -36 11 -6 19 22 13 48 -7 28 -22 20 -22
-12z"/>
<path d="M1750 749 c1 -15 23 -49 33 -49 10 0 -5 39 -19 51 -11 9 -14 8 -14
-2z"/>
<path d="M1827 703 c-11 -10 -8 -43 3 -43 6 0 10 11 10 25 0 26 -2 29 -13 18z"/>
<path d="M1947 686 c-8 -19 31 -32 46 -17 9 9 8 14 -3 21 -22 14 -37 12 -43
-4z"/>
<path d="M5430 730 c0 -5 7 -10 15 -10 8 0 15 5 15 10 0 6 -7 10 -15 10 -8 0
-15 -4 -15 -10z"/>
</g>
</svg>
