<?xml version="1.0" standalone="no"?>
<!DOCTYPE svg PUBLIC "-//W3C//DTD SVG 20010904//EN"
 "http://www.w3.org/TR/2001/REC-SVG-20010904/DTD/svg10.dtd">
<svg version="1.0" xmlns="http://www.w3.org/2000/svg"
 width="300" height="300" viewBox="0 0 300.000000 300.000000"
 preserveAspectRatio="xMidYMid meet" class="text-white bg-slate-900">
<metadata>
Created by potrace 1.10, written by Peter Selinger 2001-2011
</metadata>
<g transform="translate(0.000000,300.000000) scale(0.100000,-0.100000)"
fill="currentColor" stroke="none">
<path d="M1498 2830 c-96 -17 -161 -42 -191 -71 -26 -27 -29 -35 -24 -73 5
-36 3 -45 -11 -49 -54 -17 -209 -80 -236 -96 -17 -10 -55 -21 -85 -24 -72 -8
-96 -26 -110 -81 -11 -43 -13 -46 -44 -46 -41 0 -65 -24 -112 -111 -28 -54
-49 -76 -132 -139 -54 -42 -99 -84 -101 -94 -3 -11 14 -35 46 -66 l50 -48 -59
-78 c-32 -43 -70 -84 -84 -91 -25 -13 -34 -33 -16 -33 6 0 9 -12 8 -27 -2 -24
5 -31 50 -53 29 -14 53 -27 53 -30 0 -3 -19 -18 -41 -34 -44 -31 -70 -77 -61
-109 3 -11 34 -50 69 -87 52 -56 63 -73 63 -101 0 -47 -22 -74 -75 -95 -72
-27 -55 -44 44 -44 65 0 144 21 170 44 16 15 22 14 74 -12 31 -15 57 -32 57
-38 0 -6 -13 -28 -30 -49 -36 -45 -36 -51 -9 -66 16 -8 20 -17 15 -37 -4 -15
-11 -56 -16 -92 -11 -79 -1 -100 68 -132 36 -18 46 -28 44 -43 -12 -68 -10
-70 43 -73 28 -1 57 2 65 8 13 8 11 13 -13 32 -25 21 -27 25 -13 43 14 19 15
19 62 -7 38 -21 50 -34 55 -57 4 -17 12 -38 19 -46 8 -9 10 -28 6 -49 -6 -29
-20 -44 -89 -93 -61 -44 -83 -65 -85 -85 -4 -35 40 -85 87 -99 34 -10 50 -7
159 30 66 22 126 41 131 41 6 0 19 -8 30 -19 19 -19 142 -38 174 -25 25 9 21
-7 -12 -47 -63 -76 -32 -129 77 -129 55 0 86 17 182 101 56 48 57 49 125 49
55 0 75 5 102 22 18 13 33 30 33 39 0 14 22 18 133 28 158 14 191 21 195 43 4
19 -82 73 -131 84 -15 3 -35 18 -44 32 -10 15 -30 44 -47 65 -23 30 -26 41
-16 47 11 7 11 16 1 52 -7 24 -22 60 -33 82 -11 21 -21 59 -24 85 -2 25 -6 61
-9 79 -3 17 -2 32 3 32 16 0 62 52 62 70 0 23 -43 59 -98 84 -36 16 -42 23
-42 50 0 41 8 51 52 66 33 12 39 12 57 -4 21 -19 31 -16 66 16 81 73 99 88
102 84 3 -2 -12 -63 -33 -136 -42 -149 -43 -146 39 -171 l52 -15 1 -87 1 -86
52 -35 c59 -40 65 -36 59 41 -3 44 -1 50 30 77 34 30 34 31 30 98 -3 38 -1 71
3 74 9 5 24 -24 33 -67 5 -25 8 -26 67 -23 34 2 64 6 68 10 3 3 -10 20 -30 37
-34 31 -35 34 -27 77 6 34 4 56 -8 90 -20 54 -126 267 -147 295 -14 18 -11 23
43 75 76 74 92 121 96 290 1 69 5 126 8 128 3 1 28 2 55 2 40 0 50 -4 54 -20
6 -23 53 -37 76 -23 23 14 26 61 5 84 -19 21 -54 25 -71 8 -14 -14 -52 47 -59
93 -6 45 7 64 35 49 47 -26 89 36 57 84 -22 33 -59 33 -86 -2 l-21 -27 -25 26
c-16 15 -28 41 -31 66 -5 39 -4 42 19 42 31 0 48 17 48 50 0 31 -28 60 -58 60
-26 0 -53 -37 -46 -64 3 -15 -5 -31 -29 -54 l-34 -33 -38 63 c-48 78 -160 191
-243 247 -82 55 -198 108 -292 133 -84 22 -312 33 -392 18z m-8 -53 c0 -13 5
-28 12 -35 9 -9 8 -12 -3 -16 -8 -2 -31 -10 -51 -16 -21 -6 -44 -19 -50 -29
-7 -10 -25 -21 -39 -24 -33 -8 -52 11 -47 49 3 32 46 61 117 80 62 17 61 17
61 -9z m150 19 c0 -11 -19 -15 -25 -6 -3 5 1 10 9 10 9 0 16 -2 16 -4z m85
-15 c-8 -14 -35 -14 -55 -1 -11 7 -6 9 18 6 18 -2 32 1 32 7 0 6 3 8 6 4 3 -3
3 -10 -1 -16z m95 10 c0 -5 -9 -7 -20 -4 -11 3 -20 7 -20 9 0 2 9 4 20 4 11 0
20 -4 20 -9z m-25 -21 c3 -6 -4 -10 -17 -10 -18 0 -20 2 -8 10 19 12 18 12 25
0z m134 -1 c17 -6 31 -15 31 -19 0 -5 14 -8 30 -8 38 1 40 -1 24 -31 l-12 -23
-22 22 c-12 12 -28 19 -36 16 -18 -7 -44 3 -44 16 0 6 7 4 17 -3 15 -13 15
-12 2 9 -16 26 -29 29 -29 7 0 -13 -4 -14 -21 -4 -17 9 -19 13 -8 20 18 11 30
11 68 -2z m-231 -36 c-10 -2 -26 -2 -35 0 -10 3 -2 5 17 5 19 0 27 -2 18 -5z
m79 -9 c-3 -3 -12 -4 -19 -1 -8 3 -5 6 6 6 11 1 17 -2 13 -5z m90 -21 c-4 -3
-10 -3 -14 0 -3 4 0 7 7 7 7 0 10 -3 7 -7z m253 -14 c19 -12 60 -41 92 -65
l56 -44 -35 -35 c-19 -19 -38 -35 -42 -35 -4 0 -36 25 -71 55 -35 30 -67 55
-71 55 -4 0 -1 20 8 45 8 25 18 45 21 45 4 0 23 -10 42 -21z m-223 4 c-4 -3
-10 -3 -14 0 -3 4 0 7 7 7 7 0 10 -3 7 -7z m68 -23 c3 -6 -1 -7 -9 -4 -18 7
-21 14 -7 14 6 0 13 -4 16 -10z m-110 -44 c151 -45 229 -89 321 -180 77 -78
82 -85 112 -177 17 -52 38 -135 47 -183 16 -92 19 -292 6 -361 l-7 -40 -8 45
c-15 91 -30 151 -39 157 -5 3 -7 -3 -4 -13 3 -11 9 -50 12 -89 8 -93 -15 -210
-60 -302 -30 -61 -45 -79 -93 -112 -64 -43 -162 -95 -162 -85 0 3 11 20 25 36
37 44 19 50 -20 6 -52 -57 -72 -159 -39 -206 17 -25 39 -30 30 -7 -4 11 8 8
45 -10 71 -36 66 -59 -22 -103 -66 -32 -155 -57 -116 -32 24 15 47 63 47 99 0
16 5 31 10 33 6 2 -14 16 -45 31 -30 15 -80 39 -110 54 -30 15 -55 33 -55 40
0 7 49 53 110 103 60 50 109 94 107 98 -1 4 8 23 20 42 47 76 65 156 68 305 3
139 1 138 -11 -5 l-7 -75 -13 40 c-8 21 -16 78 -19 126 -4 80 -32 235 -40 227
-2 -2 2 -40 10 -83 15 -84 18 -199 6 -250 l-7 -30 -7 31 c-7 28 -79 163 -121
226 -18 28 -18 28 7 37 14 5 28 14 31 20 4 6 -8 4 -27 -4 l-34 -14 -41 57
c-40 54 -42 60 -43 132 -2 131 -17 136 -19 5 -1 -66 -7 -145 -13 -175 -11 -52
-14 -55 -50 -64 -25 -7 -44 -6 -55 0 -26 17 -109 171 -137 254 -14 43 -32 108
-39 146 -8 38 -15 57 -15 42 -3 -84 68 -283 145 -405 18 -28 30 -53 28 -56 -3
-2 4 -7 16 -10 11 -3 23 -1 26 4 8 13 54 11 54 -2 0 -18 -60 -126 -80 -144
-18 -16 -19 -14 -26 32 -7 52 -22 99 -23 73 -1 -24 18 -145 25 -164 6 -14 2
-16 -22 -10 -71 17 -126 58 -151 112 -12 26 -13 26 -7 -8 4 -19 13 -48 21 -63
l14 -28 -38 20 c-49 25 -88 66 -107 113 -18 41 -21 93 -7 83 5 -3 12 -1 16 5
3 5 -3 10 -14 10 -18 0 -21 7 -23 43 l-1 42 -4 -37 c-5 -41 -9 -43 -65 -27
l-38 10 0 87 c0 143 48 332 105 416 25 37 24 50 -2 19 -47 -61 -96 -197 -112
-317 -9 -62 -14 -74 -53 -113 -24 -25 -48 -41 -56 -38 -10 3 -12 0 -9 -10 4
-8 -12 -36 -39 -67 -26 -29 -73 -93 -106 -142 -55 -80 -74 -117 -140 -268 -23
-51 -73 -106 -85 -94 -10 10 -10 280 -1 324 5 19 4 31 -1 27 -5 -3 -12 -24
-16 -48 -4 -23 -13 -45 -19 -49 -13 -9 -112 -10 -144 -2 -21 6 -18 10 30 37
29 17 80 58 114 91 53 53 65 74 98 161 85 224 197 382 334 477 51 35 236 111
337 139 59 16 96 18 235 15 143 -3 177 -7 255 -30z m485 -142 c0 -8 -7 -14
-16 -14 -9 0 -12 -5 -8 -12 5 -10 4 -10 -5 -2 -17 15 -21 47 -7 56 13 8 36 -9
36 -28z m266 -8 c7 -31 -1 -46 -26 -46 -26 0 -45 36 -29 56 18 22 48 17 55
-10z m-1686 -41 c-30 -31 -56 -52 -58 -47 -1 5 3 26 10 47 13 39 32 51 83 54
15 1 6 -12 -35 -54z m1491 -36 c7 -13 7 -19 1 -15 -6 3 -14 2 -17 -4 -5 -8
-11 -7 -22 1 -13 11 -13 14 3 26 23 16 21 17 35 -8z m155 -97 c12 -15 30 -31
42 -37 15 -7 20 -15 15 -25 -18 -36 -8 -106 21 -150 l28 -43 -58 7 c-32 4 -61
12 -65 17 -4 6 -14 46 -24 88 -9 42 -26 100 -37 129 l-21 53 34 35 34 35 6
-41 c3 -22 14 -53 25 -68z m-1751 58 c3 -5 2 -10 -3 -10 -4 0 -28 -17 -53 -37
-43 -37 -44 -38 -25 -8 19 32 53 65 67 65 4 0 11 -4 14 -10z m1535 -15 c0 -8
-2 -15 -4 -15 -2 0 -6 7 -10 15 -3 8 -1 15 4 15 6 0 10 -7 10 -15z m123 -63
c13 -32 37 -138 37 -163 0 -7 -62 -32 -65 -27 0 2 -15 41 -33 88 l-31 84 32
28 c18 15 35 27 38 28 4 0 14 -17 22 -38z m237 13 c18 -22 8 -50 -19 -50 -32
0 -49 28 -32 49 17 20 35 20 51 1z m-2005 -193 c-14 -34 -25 -68 -25 -76 0
-22 -59 -86 -79 -86 -9 1 -29 11 -44 24 l-29 23 66 52 c36 29 79 70 97 92 17
22 33 38 35 36 2 -2 -7 -31 -21 -65z m403 -77 c-6 -6 -68 15 -68 23 0 3 12 19
28 35 l27 29 9 -41 c5 -23 7 -44 4 -46z m647 38 c14 -21 25 -41 25 -44 0 -8
-56 -29 -74 -29 -9 0 -9 15 -2 55 6 30 14 55 18 55 4 0 19 -17 33 -37z m1000
-28 c0 -38 -37 -48 -55 -15 -14 27 4 52 34 48 16 -2 21 -10 21 -33z m-1619
-96 c13 -35 22 -64 21 -64 -1 -1 -18 -7 -37 -13 l-35 -11 38 6 c28 4 43 1 57
-12 11 -10 20 -21 20 -24 0 -4 -44 -12 -99 -18 -94 -12 -230 -52 -204 -60 18
-6 5 -81 -18 -111 -21 -27 -16 -48 12 -55 10 -3 19 -12 19 -20 0 -14 47 -33
57 -24 2 3 -8 8 -22 11 -15 4 -25 12 -22 19 2 7 -10 18 -27 25 l-30 13 22 22
c29 28 132 32 158 5 20 -20 12 -48 -13 -48 -10 0 -26 -9 -36 -20 -9 -11 -13
-20 -8 -20 5 0 14 6 20 14 7 8 23 17 37 20 22 6 25 12 22 35 l-4 28 74 7 c41
3 92 6 113 6 21 0 40 3 43 8 2 4 1 27 -4 52 -5 25 -4 47 0 50 5 3 5 12 0 20
-19 30 -9 30 33 1 49 -36 114 -54 104 -29 -4 13 1 12 31 -3 20 -11 57 -24 80
-30 36 -8 43 -14 39 -29 -5 -20 -17 -18 173 -37 63 -7 75 -11 72 -25 -1 -10 9
-25 25 -35 15 -10 36 -26 46 -37 14 -13 28 -17 53 -13 19 3 34 1 34 -4 0 -34
-160 -149 -208 -149 -26 0 -1 -18 34 -24 l36 -7 -69 -65 c-48 -46 -80 -67
-108 -74 -55 -13 -72 -12 -78 4 -4 10 10 22 41 38 117 58 116 220 -2 277 -48
24 -138 28 -183 9 -15 -6 -48 -12 -72 -13 -53 -1 -71 -22 -71 -81 l0 -42 -39
5 c-48 7 -139 -12 -163 -34 -10 -9 -18 -24 -18 -34 0 -12 -14 -24 -37 -35 -36
-14 -41 -14 -78 4 -95 46 -141 108 -131 175 4 23 -1 83 -11 141 l-17 102 66
99 c37 55 87 123 113 152 l45 52 42 -19 c37 -16 44 -25 64 -81z m1344 71 c0
-5 -4 -10 -10 -10 -5 0 -10 5 -10 10 0 6 5 10 10 10 6 0 10 -4 10 -10z m58
-32 c-2 -28 -18 -40 -18 -14 0 8 -2 21 -5 29 -4 8 0 14 10 14 10 0 14 -9 13
-29z m-682 -78 c31 -56 55 -103 52 -105 -2 -2 -21 0 -43 5 -22 6 -86 13 -142
16 -57 4 -103 10 -103 14 0 20 31 29 81 25 l54 -4 -52 10 c-29 6 -53 14 -52
17 0 4 10 27 22 51 16 33 31 48 57 57 62 22 65 20 126 -86z m-665 80 c34 -10
35 -11 50 -87 9 -43 19 -87 24 -98 5 -14 -3 -9 -29 15 -34 32 -75 104 -91 158
-7 25 -4 26 46 12z m1346 -67 c-4 -3 -10 -3 -14 0 -3 4 0 7 7 7 7 0 10 -3 7
-7z m-50 -55 c-3 -8 -6 -5 -6 6 -1 11 2 17 5 13 3 -3 4 -12 1 -19z m53 -7 c0
-29 -15 -33 -18 -5 -1 13 3 24 8 24 6 0 10 -9 10 -19z m-959 -104 c-8 -8 -11
-5 -11 9 0 27 14 41 18 19 2 -9 -1 -22 -7 -28z m849 -84 c-6 -29 -16 -56 -22
-59 -8 -5 -9 -1 -4 12 4 10 13 53 19 94 9 59 13 67 15 40 2 -19 -1 -59 -8 -87z
m73 75 c14 -11 14 -16 2 -38 l-13 -25 -11 28 c-19 48 -11 60 22 35z m-494 -76
c1 -8 -5 -12 -11 -10 -13 5 -29 74 -19 84 6 5 29 -51 30 -74z m-1409 43 c0
-11 -17 -60 -26 -74 -6 -8 -104 32 -104 42 0 22 15 35 45 40 64 9 85 7 85 -8z
m1870 -45 c0 -17 -17 -37 -25 -29 -2 2 -1 16 2 31 6 30 23 28 23 -2z m-481
-14 c21 -19 18 -51 -6 -60 -8 -3 -12 -10 -8 -16 8 -13 -38 -24 -65 -15 -12 4
-19 13 -16 20 3 8 -6 15 -23 18 -38 8 -46 32 -20 58 18 18 30 20 70 17 27 -3
58 -13 68 -22z m-1447 -63 c-38 -26 -81 -71 -82 -87 0 -5 3 -7 6 -3 3 3 16
-12 28 -34 13 -25 44 -57 81 -83 74 -51 105 -102 87 -141 -14 -31 -66 -55
-119 -55 l-37 0 27 28 c21 22 27 38 27 73 -1 55 -13 78 -68 124 -52 45 -77 88
-63 113 17 30 114 99 133 94 14 -3 10 -9 -20 -29z m257 -143 c8 -14 20 -33 28
-42 10 -11 12 -22 5 -33 -8 -15 -11 -14 -29 11 -26 36 -53 115 -53 153 0 50
15 44 26 -11 6 -29 16 -64 23 -78z m892 10 c24 -40 0 -134 -42 -162 -54 -35
-67 -33 -120 17 -46 43 -137 95 -168 95 -31 0 13 31 73 50 75 25 241 24 257 0z
m-963 -100 c-18 -22 -36 -40 -39 -40 -4 0 -14 12 -24 26 -15 24 -15 27 1 52 9
15 26 37 37 50 l21 23 18 -36 19 -35 -33 -40z m1184 72 c-26 -35 -65 -57 -89
-48 -14 6 -10 11 22 25 22 11 49 26 60 35 28 22 29 20 7 -12z m-592 -34 c21 0
22 -1 7 -10 -10 -5 -14 -14 -11 -20 5 -8 -3 -9 -26 -5 -18 4 -42 7 -54 7 -12
0 -27 10 -35 22 -13 21 -13 21 40 13 30 -4 65 -7 79 -7z m-151 -24 c-12 -15
-69 -19 -69 -6 0 16 13 22 26 11 7 -6 19 -9 26 -6 8 3 6 6 -5 6 -10 1 -16 5
-13 10 3 5 15 7 26 4 16 -4 18 -8 9 -19z m1031 14 c-1 -31 -61 -78 -90 -71
-16 4 -11 11 28 43 51 42 62 47 62 28z m-795 -35 c-11 -10 -25 -12 -48 -7 -31
6 -31 7 -9 15 13 5 28 7 33 3 5 -3 9 -1 9 5 0 6 7 8 15 5 13 -5 13 -8 0 -21z
m-605 -83 c0 -14 7 -34 15 -44 22 -29 18 -36 -14 -26 -63 18 -104 51 -94 78 4
9 20 34 36 55 l30 39 13 -39 c8 -21 14 -49 14 -63z m107 60 c26 -17 48 -34 48
-39 0 -14 -64 -81 -78 -81 -16 0 -41 27 -51 55 -6 15 20 94 31 95 1 0 24 -14
50 -30z m442 1 c83 -26 143 -76 180 -154 36 -72 47 -136 36 -204 l-8 -48 -13
65 -12 65 -1 -90 c-1 -103 -11 -124 -71 -155 -48 -24 -56 -36 -38 -57 12 -15
10 -16 -17 -9 -16 4 -32 10 -34 12 -7 7 36 59 47 57 17 -4 32 56 32 124 0 44
-3 62 -11 57 -8 -4 -9 1 -5 17 3 13 3 18 0 12 -3 -8 -20 6 -45 37 -22 27 -50
57 -64 66 -14 9 -29 33 -36 56 -15 57 -18 43 -6 -27 8 -48 7 -71 -6 -115 -9
-30 -23 -64 -31 -75 -14 -19 -15 -17 -16 25 0 37 -3 42 -11 27 -6 -11 -8 -34
-4 -54 l6 -35 25 23 24 22 0 -32 c0 -45 41 -85 78 -76 41 10 52 24 52 67 0 73
-45 121 -96 101 -15 -5 -16 -2 -11 27 4 18 7 42 7 53 0 18 6 16 41 -18 22 -22
54 -61 71 -88 27 -42 30 -54 26 -103 -4 -50 -9 -60 -53 -104 -56 -57 -108 -74
-220 -74 -74 1 -173 34 -160 54 3 6 11 8 16 5 13 -8 11 -3 -8 36 -20 41 -28
127 -18 205 7 60 14 61 34 1 11 -34 11 -41 -4 -58 -22 -24 -23 -90 -2 -122 21
-33 62 -42 94 -22 21 14 24 23 21 61 -3 46 -2 47 45 44 15 -1 27 3 27 8 0 6
-9 8 -19 5 -10 -3 -29 1 -41 7 -15 8 -20 8 -16 1 14 -22 -14 -10 -48 19 -43
38 -69 112 -64 179 1 27 0 47 -4 44 -5 -2 -8 -19 -8 -36 0 -18 -7 -54 -16 -82
-22 -70 -22 -201 -1 -242 9 -18 17 -34 17 -38 0 -14 -34 -2 -56 20 -25 25 -25
25 -19 3 15 -49 -54 34 -71 85 -46 139 51 357 184 414 89 38 207 43 301 14z
m165 -34 c36 -36 58 -69 69 -103 19 -57 29 -144 17 -144 -11 0 -23 37 -16 49
5 8 -12 46 -55 121 -8 14 -22 31 -32 38 -9 7 -15 17 -12 22 3 5 -5 12 -17 16
-35 11 -68 35 -62 45 15 24 58 7 108 -44z m596 -2 c0 -8 -6 -15 -14 -15 -17 0
-28 14 -19 24 12 12 33 6 33 -9z m-410 -79 c0 -2 -11 -11 -25 -20 -21 -14 -25
-14 -25 -2 0 8 10 17 23 19 12 2 23 5 25 6 1 0 2 -1 2 -3z m26 -61 c7 -41 27
-59 55 -52 13 3 19 1 16 -6 -2 -7 -15 -12 -28 -12 -21 0 -25 -6 -36 -60 -7
-37 -7 -64 -2 -70 5 -5 41 -11 79 -13 71 -4 99 -22 35 -22 l-35 0 0 -75 c0
-65 -2 -75 -17 -74 -11 0 -13 3 -5 6 8 3 12 28 12 73 0 66 -1 68 -27 73 -16 3
-35 8 -44 12 -23 9 -74 -88 -55 -104 7 -6 15 -8 18 -6 3 3 4 -10 2 -30 l-2
-35 41 6 c51 8 47 -1 -5 -10 -34 -6 -41 -3 -92 43 -31 28 -67 53 -80 57 -22 5
-24 9 -14 30 6 13 14 24 18 24 4 0 26 -14 49 -31 24 -17 44 -29 45 -27 10 18
36 81 36 88 0 5 -16 12 -35 16 -57 10 -55 27 2 19 47 -6 51 -5 57 17 3 13 6
40 6 61 0 33 -3 37 -25 37 -14 0 -25 5 -25 10 0 6 12 10 26 10 24 0 26 3 21
28 -3 15 -9 36 -13 46 -5 13 -4 17 4 12 6 -4 14 -22 18 -41z m-861 25 c-7 -11
-45 -33 -45 -26 0 2 7 12 16 20 17 18 39 22 29 6z m786 -35 c21 -7 25 -20 8
-31 -6 -3 -8 -17 -5 -30 4 -16 2 -24 -7 -24 -15 0 -39 108 -28 125 3 6 7 0 9
-12 2 -12 12 -25 23 -28z m-811 -55 c-18 -27 -36 -50 -42 -50 -11 0 -6 9 35
67 42 59 47 45 7 -17z m1033 33 c15 -8 30 -20 33 -28 7 -16 -17 -68 -30 -67
-5 0 -24 28 -43 62 -32 59 -33 61 -11 55 13 -4 36 -14 51 -22z m-96 -100 c-4
-3 -10 -3 -14 0 -3 4 0 7 7 7 7 0 10 -3 7 -7z m-951 -59 c-8 -21 -15 -31 -15
-22 -1 21 18 72 24 66 3 -3 -1 -22 -9 -44z m1001 24 c-3 -8 -6 -5 -6 6 -1 11
2 17 5 13 3 -3 4 -12 1 -19z m-235 -20 c-7 -7 -12 -8 -12 -2 0 14 12 26 19 19
2 -3 -1 -11 -7 -17z m-212 -53 c0 -41 -74 -47 -88 -7 -4 13 31 30 66 31 17 1
22 -5 22 -24z m-515 -50 c14 -30 39 -62 56 -73 26 -16 28 -20 15 -32 -21 -17
-20 -36 4 -60 20 -20 20 -20 -20 -20 -22 0 -40 2 -40 4 0 2 7 23 15 47 9 23
12 40 9 36 -4 -4 -14 2 -21 13 -8 11 -18 18 -23 15 -11 -7 -66 20 -76 37 -8
12 -7 75 1 88 3 4 16 5 29 3 18 -4 32 -20 51 -58z m260 3 c4 4 2 -3 -4 -15
-17 -33 -81 -29 -81 4 0 9 6 13 15 10 8 -4 17 -2 20 3 4 7 13 7 24 0 10 -5 22
-6 26 -2z m443 -32 c15 -8 42 -30 61 -49 l34 -36 -29 -24 -29 -25 -53 49 c-30
27 -59 49 -65 49 -6 0 -2 7 11 15 26 19 49 10 105 -43 20 -20 37 -31 37 -26 0
15 -50 59 -87 78 -18 9 -33 19 -33 21 0 9 21 5 48 -9z m342 -36 c-8 -5 -22 -9
-30 -9 -10 0 -8 3 5 9 27 12 43 12 25 0z m-63 -17 c-4 -3 -10 -3 -14 0 -3 4 0
7 7 7 7 0 10 -3 7 -7z m-504 -63 c-7 -27 -22 -35 -36 -20 -9 10 -9 11 0 6 7
-3 14 2 18 14 8 26 25 26 18 0z m-26 3 c-4 -3 -10 -3 -14 0 -3 4 0 7 7 7 7 0
10 -3 7 -7z m70 0 c-4 -3 -10 -3 -14 0 -3 4 0 7 7 7 7 0 10 -3 7 -7z m-120
-50 c-8 -7 -36 9 -41 24 -4 11 -2 13 9 9 8 -3 15 0 16 7 0 7 5 1 10 -12 5 -13
8 -26 6 -28z m23 37 c0 -5 -5 -10 -11 -10 -5 0 -7 5 -4 10 3 6 8 10 11 10 2 0
4 -4 4 -10z m159 -11 c-9 -5 -5 -10 14 -14 41 -11 33 -30 -10 -24 -5 1 -7 5
-6 9 1 4 -5 11 -13 14 -11 4 -15 2 -11 -8 4 -10 0 -12 -16 -8 -12 3 -16 7 -9
10 7 2 9 9 6 14 -4 7 -2 8 4 4 6 -3 17 0 24 8 7 8 17 12 22 9 4 -3 2 -9 -5
-14z m-235 -39 c-1 -44 -11 -47 -16 -6 -2 21 0 36 7 36 5 0 10 -14 9 -30z
m166 -1 c0 -6 -5 -7 -10 -4 -6 4 -17 1 -25 -5 -8 -7 -15 -9 -15 -5 0 11 34 34
42 29 5 -3 8 -10 8 -15z m590 1 c6 -11 8 -20 6 -20 -3 0 -10 9 -16 20 -6 11
-8 20 -6 20 3 0 10 -9 16 -20z m-36 -73 c22 -12 41 -28 44 -35 2 -7 -10 -4
-31 8 -19 11 -43 23 -53 25 -108 25 -141 42 -63 32 l45 -6 -3 32 -3 32 13 -33
c8 -21 27 -41 51 -55z m-627 57 c-3 -3 -12 -4 -19 -1 -8 3 -5 6 6 6 11 1 17
-2 13 -5z m223 -19 c-13 -14 -28 -25 -34 -25 -11 1 40 50 51 50 4 0 -4 -11
-17 -25z m123 8 c-4 -10 -13 -28 -21 -40 -8 -13 -12 -30 -8 -38 3 -9 0 -15 -8
-15 -8 0 -21 -12 -31 -26 -9 -14 -19 -23 -22 -20 -3 3 0 13 8 22 11 13 11 18
2 21 -20 7 -15 23 7 23 14 0 27 14 42 45 21 43 44 64 31 28z m-511 -38 c4 -19
1 -25 -13 -25 -21 0 -25 20 -7 38 16 16 15 16 20 -13z m78 -9 c0 -7 -7 -13
-15 -13 -15 0 -20 18 -9 30 9 9 24 -2 24 -17z m247 -2 c0 -9 -4 -11 -10 -5 -5
5 -17 7 -25 3 -14 -5 -15 -4 -2 10 17 18 37 14 37 -8z m-65 -11 c-6 -2 -9 -10
-6 -15 4 -7 2 -8 -4 -4 -18 11 -14 26 6 25 10 0 12 -3 4 -6z m-70 -28 c-2 -14
-6 -25 -7 -25 -1 0 -5 11 -7 25 -3 16 -1 25 7 25 8 0 10 -9 7 -25z m35 18 c-4
-3 -10 -3 -14 0 -3 4 0 7 7 7 7 0 10 -3 7 -7z m-225 -35 c-9 -9 -15 -9 -24 0
-9 9 -7 12 12 12 19 0 21 -3 12 -12z m115 -45 c-3 -10 -5 -4 -5 12 0 17 2 24
5 18 2 -7 2 -21 0 -30z m140 30 c-4 -3 -10 -3 -14 0 -3 4 0 7 7 7 7 0 10 -3 7
-7z m-187 -7 c0 -2 -7 -6 -15 -10 -8 -3 -15 -1 -15 4 0 6 7 10 15 10 8 0 15
-2 15 -4z m148 -3 c-9 -2 -18 -12 -20 -21 -3 -13 -5 -12 -10 6 -5 19 -2 22 20
21 16 -1 20 -3 10 -6z m59 -10 c-4 -3 -10 -3 -14 0 -3 4 0 7 7 7 7 0 10 -3 7
-7z m-168 -59 c2 -2 -12 -4 -32 -4 -26 0 -37 4 -37 14 0 12 6 13 33 4 17 -6
34 -13 36 -14z m231 16 c12 -8 10 -9 -10 -9 -14 1 -38 5 -55 9 -29 7 -29 8 10
9 22 0 47 -4 55 -9z m-143 -17 c-4 -3 -10 -3 -14 0 -3 4 0 7 7 7 7 0 10 -3 7
-7z m-71 -30 c-10 -10 -19 5 -10 18 6 11 8 11 12 0 2 -7 1 -15 -2 -18z m161
-10 c-4 -3 -10 -3 -14 0 -3 4 0 7 7 7 7 0 10 -3 7 -7z"/>
<path d="M1332 2533 c-45 -89 -55 -240 -23 -344 23 -72 78 -157 127 -194 45
-34 133 -75 163 -75 28 0 21 12 -9 17 -44 6 -138 64 -179 108 -77 83 -120 218
-106 330 8 62 33 156 47 173 6 7 8 15 5 18 -3 3 -14 -11 -25 -33z"/>
<path d="M1383 2485 c0 -22 2 -30 4 -17 2 12 2 30 0 40 -3 9 -5 -1 -4 -23z"/>
<path d="M2138 2303 c29 -42 78 -142 92 -191 7 -23 15 -40 18 -38 16 17 -99
256 -123 256 -4 0 2 -12 13 -27z"/>
<path d="M1228 793 c6 -2 18 -2 25 0 6 3 1 5 -13 5 -14 0 -19 -2 -12 -5z"/>
<path d="M1525 1260 c3 -5 8 -10 11 -10 3 0 2 5 -1 10 -3 6 -8 10 -11 10 -3 0
-2 -4 1 -10z"/>
<path d="M1530 1219 c0 -15 18 -19 23 -6 3 8 -1 14 -9 14 -8 0 -14 -4 -14 -8z"/>
<path d="M390 2431 c0 -15 121 -194 127 -187 5 5 -115 196 -123 196 -2 0 -4
-4 -4 -9z"/>
<path d="M260 2325 c0 -8 5 -15 10 -15 6 0 10 7 10 15 0 8 -4 15 -10 15 -5 0
-10 -7 -10 -15z"/>
<path d="M184 2286 c15 -24 14 -25 -21 -46 -45 -26 -38 -37 11 -14 19 10 37
16 39 13 1 -2 20 -31 42 -64 27 -42 40 -55 43 -43 2 10 -10 37 -27 62 -17 25
-31 49 -31 54 0 13 65 25 90 17 24 -8 25 -23 4 -53 -18 -27 -4 -29 19 -4 47
51 0 93 -84 76 -43 -9 -51 -8 -66 8 -24 26 -38 22 -19 -6z"/>
<path d="M340 2053 c1 -26 37 -103 50 -103 14 0 13 2 -14 65 -26 57 -36 68
-36 38z"/>
<path d="M240 2041 c0 -19 43 -121 51 -121 13 0 11 13 -12 74 -19 49 -39 73
-39 47z"/>
<path d="M296 2028 c15 -52 36 -92 41 -80 7 17 -26 102 -39 102 -5 0 -6 -10
-2 -22z"/>
<path d="M396 1933 c-11 -11 -6 -23 9 -23 8 0 15 4 15 9 0 13 -16 22 -24 14z"/>
<path d="M350 1910 c0 -5 5 -10 10 -10 6 0 10 5 10 10 0 6 -4 10 -10 10 -5 0
-10 -4 -10 -10z"/>
<path d="M300 1890 c0 -5 5 -10 10 -10 6 0 10 5 10 10 0 6 -4 10 -10 10 -5 0
-10 -4 -10 -10z"/>
<path d="M287 1812 c-129 -17 -130 -33 -2 -21 111 11 137 17 130 29 -3 6 -9 9
-13 9 -4 -1 -56 -8 -115 -17z"/>
<path d="M742 694 c-12 -8 -25 -13 -30 -10 -4 2 -16 -3 -27 -11 -13 -10 -16
-17 -8 -20 7 -2 9 -12 6 -20 -5 -13 -2 -15 13 -9 10 5 24 9 29 9 6 1 19 10 29
21 19 19 19 19 -4 13 l-22 -6 23 25 c26 28 23 31 -9 8z"/>
<path d="M786 621 c-4 -5 -2 -12 3 -15 5 -4 12 -2 15 3 4 5 2 12 -3 15 -5 4
-12 2 -15 -3z"/>
<path d="M723 613 c4 -3 10 -3 14 0 3 4 0 7 -7 7 -7 0 -10 -3 -7 -7z"/>
<path d="M835 590 c3 -5 8 -10 11 -10 2 0 4 5 4 10 0 6 -5 10 -11 10 -5 0 -7
-4 -4 -10z"/>
</g>
</svg>
