<?xml version="1.0" standalone="no"?>
<!DOCTYPE svg PUBLIC "-//W3C//DTD SVG 20010904//EN"
 "http://www.w3.org/TR/2001/REC-SVG-20010904/DTD/svg10.dtd">
<svg version="1.0" xmlns="http://www.w3.org/2000/svg"
 width="300" height="300" viewBox="0 0 300.000000 300.000000"
 preserveAspectRatio="xMidYMid meet">
<metadata>
Created by potrace 1.10, written by Peter Selinger 2001-2011
</metadata>
<g transform="translate(0.000000,300.000000) scale(0.050000,-0.050000)"
fill="currentColor" stroke="none">
<path d="M3030 5669 c-22 -5 -89 -19 -150 -32 -232 -46 -332 -130 -314 -263
l12 -86 -184 -67 c-101 -36 -233 -92 -293 -124 -59 -31 -136 -57 -170 -57
-168 0 -225 -44 -259 -202 -9 -41 -23 -51 -72 -51 -80 0 -141 -61 -227 -224
-51 -97 -99 -154 -177 -212 -337 -252 -344 -265 -195 -398 l101 -91 -93 -116
c-130 -163 -175 -212 -220 -242 -22 -14 -30 -29 -18 -35 12 -6 18 -36 14 -67
-8 -52 0 -60 103 -103 132 -55 132 -54 32 -123 -180 -125 -178 -200 11 -396
190 -196 172 -340 -49 -399 -154 -42 -92 -81 125 -80 148 1 271 33 329 86 31
27 45 25 149 -23 132 -62 137 -78 55 -171 -71 -81 -74 -104 -18 -134 33 -17
39 -34 28 -76 -75 -295 -62 -365 82 -435 l112 -54 -13 -86 c-16 -105 27 -139
149 -118 105 18 142 63 74 88 -67 26 -78 49 -45 94 24 32 34 34 65 13 20 -14
65 -39 101 -56 45 -21 65 -43 65 -75 0 -25 14 -66 32 -91 65 -92 25 -167 -158
-297 -189 -136 -209 -181 -124 -283 95 -112 170 -118 411 -34 280 99 307 103
354 56 46 -46 283 -78 343 -46 66 35 63 -3 -5 -87 -114 -140 -109 -204 21
-254 150 -57 268 -12 483 185 l106 97 147 0 c150 0 270 57 270 128 0 25 321
72 484 72 249 0 221 118 -51 215 -78 28 -111 55 -167 140 -39 58 -85 114 -103
124 -30 17 -30 19 2 32 51 19 43 73 -32 236 -39 86 -67 180 -69 233 -2 50 -9
115 -15 145 -8 34 -4 55 10 55 38 0 121 95 121 138 0 54 -91 135 -195 175
-134 51 -123 177 19 228 66 24 79 23 114 -9 41 -37 62 -32 132 31 242 220 242
220 182 42 -141 -419 -139 -447 40 -487 126 -28 121 -12 101 -337 -2 -33 12
-57 42 -72 25 -12 61 -36 80 -53 93 -80 132 -42 105 104 -16 87 -14 92 54 148
l71 59 -13 146 c-12 124 -9 147 17 147 29 0 55 -63 59 -148 3 -62 272 -77 272
-15 0 24 -28 57 -70 83 -61 38 -68 50 -55 97 33 117 13 195 -120 470 -74 152
-153 303 -177 336 -27 37 -36 66 -24 74 242 156 318 343 302 743 l-7 190 104
-7 c82 -5 111 -16 135 -52 66 -102 192 -63 192 60 0 87 -81 151 -142 113 -58
-37 -71 -30 -116 62 -60 123 -44 264 21 199 58 -58 157 4 157 98 0 110 -160
163 -203 68 -30 -64 -88 -37 -129 60 -42 102 -37 149 18 149 103 0 135 152 45
211 -87 57 -189 -17 -163 -119 8 -34 -6 -62 -57 -111 l-68 -66 -34 68 c-179
348 -607 673 -1063 809 -170 50 -668 86 -796 57z m470 -65 c0 -64 -52 -77
-258 -65 -162 8 -202 16 -180 34 47 39 438 67 438 31z m-516 -59 l6 -55 154 7
c162 7 316 -10 316 -36 0 -8 -83 -11 -185 -6 -223 12 -402 -21 -466 -84 -93
-93 -189 -77 -189 31 0 69 51 107 215 159 148 47 141 48 149 -16z m675 40 c-1
-35 -56 -85 -93 -85 -59 0 -70 22 -33 63 32 36 128 52 126 22z m257 -66 c163
-50 173 -59 137 -108 -24 -33 -34 -33 -184 16 -88 28 -175 54 -195 57 -33 6
-33 9 -3 52 19 27 46 42 66 36 18 -5 99 -29 179 -53z m-318 -71 c5 -4 4 -13
-2 -19 -17 -17 -116 13 -116 35 0 19 97 5 118 -16z m228 -49 c68 -23 154 -59
190 -80 84 -49 77 -51 104 32 16 49 33 68 52 61 31 -12 226 -145 308 -210 l50
-40 -55 -57 c-71 -74 -69 -84 27 -150 79 -56 114 -105 90 -130 -7 -7 -55 32
-108 86 -245 256 -536 436 -775 481 -38 7 -69 20 -69 30 0 28 51 21 186 -23z
m-316 -102 c479 -78 895 -338 1030 -642 126 -285 201 -1015 136 -1309 -12 -50
-9 -62 13 -54 77 30 90 600 21 927 -40 189 -24 205 28 28 169 -568 60 -1247
-231 -1437 -76 -50 -96 -10 -37 70 164 222 213 705 98 950 -25 52 -27 53 -18
10 128 -620 -14 -982 -479 -1227 -121 -64 -133 -56 -59 41 56 74 56 75 8 45
-121 -77 -200 -354 -129 -455 36 -51 74 -59 56 -12 -11 26 2 24 70 -10 194
-99 68 -250 -265 -317 l-58 -11 75 69 c60 55 79 90 91 165 l14 95 -208 98
c-194 91 -273 169 -172 169 13 0 35 11 49 25 14 14 37 25 51 25 14 0 30 20 37
45 6 25 69 94 140 153 72 59 126 112 121 117 -6 5 12 44 38 86 100 157 134
307 140 619 6 281 6 284 -9 80 -9 -115 -18 -223 -20 -240 -10 -78 -63 171 -70
330 -9 189 -61 462 -93 481 -23 14 -23 20 12 -111 36 -135 61 -487 41 -590
l-14 -76 -65 161 c-35 88 -102 219 -147 291 l-81 131 58 24 c32 13 58 32 58
41 0 24 -13 23 -77 -11 -55 -28 -56 -27 -139 85 l-84 114 0 194 c0 107 -9 199
-20 206 -13 8 -20 -64 -20 -200 0 -420 -39 -530 -189 -530 -120 0 -361 544
-412 933 -13 97 -28 182 -34 187 -23 22 16 -320 53 -459 22 -82 35 -156 30
-165 -6 -9 -3 -16 6 -16 10 0 43 -59 74 -131 31 -72 91 -184 133 -248 42 -65
72 -122 67 -127 -5 -5 9 -14 31 -20 23 -5 46 -2 52 8 16 26 109 22 109 -4 0
-36 -121 -253 -161 -289 -34 -31 -37 -28 -49 64 -7 53 -21 115 -31 137 -28 60
1 -204 32 -292 l26 -74 -122 48 c-139 54 -184 90 -238 188 l-38 70 13 -70 c7
-38 26 -95 41 -126 l29 -56 -76 39 c-148 77 -246 219 -246 357 0 32 9 41 30
33 17 -6 30 -2 30 9 0 10 -18 24 -40 30 -32 8 -41 29 -44 107 l-3 97 -8 -95
c-8 -103 -14 -106 -130 -74 l-75 21 0 154 c0 302 92 669 212 847 64 95 65 132
3 62 -94 -103 -209 -431 -245 -695 -16 -123 -149 -279 -219 -258 -33 10 -36 7
-17 -13 20 -21 7 -47 -62 -127 -186 -218 -452 -658 -452 -747 0 -49 -76 -174
-147 -242 l-70 -68 -14 95 c-17 112 -1 563 22 618 11 26 9 34 -6 25 -13 -8
-29 -53 -36 -102 -15 -99 -35 -110 -202 -111 -169 0 -184 17 -70 82 132 75
345 289 387 388 18 44 64 157 101 250 188 474 506 822 867 949 76 26 179 66
228 88 248 110 606 140 970 80z m1158 -291 c37 -50 37 -53 1 -79 -48 -36 -51
-35 -106 34 l-46 59 46 19 c64 25 62 26 105 -33z m531 -35 c13 -16 21 -45 17
-65 -9 -49 -103 -49 -112 0 -16 84 45 125 95 65z m-3360 -102 c-117 -119 -134
-118 -95 2 26 77 65 102 165 107 30 2 13 -25 -70 -109z m2889 -11 c-25 -28
-41 -33 -57 -17 -15 15 -10 30 17 50 52 38 82 14 40 -33z m100 -73 c50 -99 -8
-147 -75 -62 -37 49 -45 72 -29 91 34 41 73 30 104 -29z m-182 -19 c-8 -21 -5
-28 9 -19 24 15 105 -104 105 -154 0 -45 46 -41 90 7 55 61 66 51 109 -95 60
-204 62 -293 6 -301 -54 -8 -53 -1 -13 -138 17 -60 27 -127 22 -148 -6 -21 -2
-38 8 -38 10 0 18 -13 18 -30 0 -16 -13 -30 -30 -30 -16 0 -30 11 -30 25 -4
235 -126 615 -264 820 -43 64 -72 125 -66 136 20 31 50 2 36 -35z m506 -189
c31 -31 68 -57 84 -57 20 0 23 -10 12 -35 -37 -77 -20 -216 37 -302 l56 -83
-66 2 c-171 7 -179 13 -218 188 -20 88 -32 171 -27 185 5 14 2 25 -6 25 -8 0
-31 41 -52 91 l-37 92 67 70 68 69 14 -93 c9 -62 32 -113 68 -152z m-3526 148
c5 -8 -35 -49 -89 -90 -112 -87 -127 -70 -30 34 66 69 102 86 119 56z m3793
-144 c29 -53 5 -104 -45 -97 -58 9 -88 65 -55 104 35 43 75 40 100 -7z m-3975
-294 c-21 -42 -54 -126 -74 -187 -63 -198 -152 -258 -258 -174 l-57 46 131
105 c72 57 164 150 204 205 83 116 111 119 54 5z m774 -203 c2 -39 -5 -45 -43
-33 -93 28 -101 51 -41 113 l56 59 13 -47 c7 -25 14 -67 15 -92z m1292 36 c63
-91 64 -86 -28 -117 -86 -29 -87 -28 -70 95 16 123 26 125 98 22z m1550 -31
c29 -76 26 -214 -5 -204 -27 9 -49 87 -53 190 -2 78 31 86 58 14z m436 27 c29
-29 31 -89 4 -106 -33 -20 -95 8 -106 49 -17 66 53 106 102 57z m-3332 -88
c50 -23 74 -54 98 -125 17 -51 38 -109 47 -128 12 -28 6 -35 -32 -35 -26 0
-60 -10 -77 -21 -22 -16 -8 -18 51 -9 68 10 87 5 126 -36 l45 -49 -163 -14
c-221 -19 -527 -102 -464 -125 36 -13 9 -165 -38 -217 -95 -105 149 -280 250
-179 17 16 54 39 84 50 44 17 52 31 45 78 -9 61 76 81 348 82 113 0 122 12 97
124 -12 53 -12 88 0 93 10 3 5 32 -11 64 -45 85 -37 89 34 18 97 -97 297 -175
257 -101 l-22 41 65 -38 c37 -21 109 -49 162 -62 77 -20 93 -31 84 -60 -10
-31 6 -37 124 -48 353 -33 373 -37 376 -88 4 -47 39 -82 85 -83 14 0 25 -13
25 -30 0 -36 82 -59 150 -42 61 16 62 7 5 -70 -55 -76 -254 -210 -335 -228
-84 -18 -75 -44 21 -60 l81 -14 -136 -129 c-147 -140 -326 -211 -367 -146 -22
36 -6 59 41 59 153 0 262 268 177 434 -82 160 -389 253 -528 160 -21 -15 -78
-26 -126 -25 -105 3 -143 -39 -143 -158 l0 -81 -145 0 c-180 0 -273 -36 -288
-110 -52 -259 -538 5 -498 271 8 51 0 154 -18 250 -43 227 -46 216 101 434
258 379 294 410 412 353z m1544 -229 c132 -228 132 -228 2 -199 -53 12 -180
27 -283 34 -103 7 -187 19 -187 27 0 41 58 55 174 41 68 -8 120 -8 115 0 -6 9
-58 21 -117 29 l-107 13 33 87 c43 111 102 153 232 167 12 1 73 -88 138 -199z
m-1325 160 c70 -19 74 -25 87 -124 8 -58 31 -148 50 -200 36 -93 35 -94 -3
-67 -62 43 -150 174 -196 289 -56 142 -60 136 62 102z m2601 -326 c-4 -127 0
-153 25 -153 38 0 38 -15 2 -79 l-27 -49 -27 69 c-34 86 -26 386 10 373 15 -6
21 -58 17 -161z m95 62 c-3 -120 -36 -156 -38 -40 0 58 8 105 19 105 11 0 19
-29 19 -65z m-192 -244 c-25 -155 -53 -251 -71 -251 -12 0 -15 20 -8 45 7 25
22 106 35 181 14 81 30 126 39 111 8 -14 11 -53 5 -86z m-889 -53 c25 -81 17
-122 -16 -87 -25 28 -47 169 -26 169 10 0 29 -37 42 -82z m-2798 18 c0 -83
-50 -158 -98 -146 -135 34 -185 67 -163 108 27 50 261 85 261 38z m3724 -141
c-42 -48 -46 -37 -31 76 l14 98 24 -69 c20 -59 19 -76 -7 -105z m-971 26 c73
-44 74 -121 2 -121 -32 0 -35 -5 -16 -28 18 -23 15 -31 -16 -41 -58 -18 -152
8 -124 36 15 15 2 27 -44 42 -38 12 -68 37 -72 60 -17 89 155 122 270 52z
m-1858 -47 c49 -49 17 -94 -67 -94 -63 0 -69 -4 -48 -30 21 -26 13 -30 -58
-30 -69 0 -83 6 -78 35 4 23 -9 37 -39 41 -78 11 -48 85 45 111 69 18 213 -1
245 -33z m-961 -30 c17 -11 -12 -44 -88 -104 -62 -48 -102 -91 -89 -96 12 -4
23 -29 23 -55 0 -30 28 -73 74 -113 364 -325 381 -452 66 -490 l-109 -13 54
65 c102 120 72 262 -81 393 -174 150 -175 206 0 343 116 93 116 92 150 70z
m448 -263 c11 -48 38 -113 59 -143 29 -40 35 -67 22 -100 -30 -82 -163 179
-163 319 0 95 47 154 55 69 3 -31 15 -96 27 -145z m-370 39 c43 -96 57 -98
152 -20 116 96 105 38 -14 -80 -114 -112 -160 -135 -178 -88 -6 15 -23 28 -38
28 -27 0 -74 79 -74 125 0 26 79 115 102 115 8 0 31 -36 50 -80z m3597 -298
c18 -114 29 -210 25 -214 -11 -11 -134 170 -134 198 -1 15 -8 13 -20 -6 -16
-25 -19 -24 -20 6 0 20 -9 31 -20 24 -30 -18 -48 46 -22 77 12 15 17 31 11 37
-5 6 18 41 52 77 79 84 84 75 128 -199z m-1438 214 c26 -26 35 -176 10 -176
-13 0 -18 -9 -11 -19 13 -22 -42 -118 -90 -155 -76 -60 -121 -51 -222 44 -91
85 -274 189 -333 190 -81 0 6 62 155 110 90 29 463 34 491 6z m-1882 -68 c30
-71 30 -72 -43 -159 l-73 -88 -38 62 c-40 67 -29 102 71 212 52 57 48 58 83
-27z m2346 8 c-46 -71 -128 -123 -167 -108 -31 12 -28 18 20 43 31 16 80 47
109 68 68 51 74 51 38 -3z m1065 -166 c19 -44 42 -102 49 -130 23 -81 60 -160
74 -160 33 0 -1 -71 -37 -76 -62 -9 -86 38 -106 209 -10 86 -23 189 -29 227
-6 39 -6 57 1 40 7 -16 29 -66 48 -110z m-2160 67 c290 -92 453 -304 473 -612
9 -143 7 -152 -22 -116 -17 21 -31 71 -31 112 0 232 -229 478 -512 549 -140
35 -223 68 -172 69 15 1 21 10 13 22 -15 25 145 10 251 -24z m1660 -5 c0 -47
-133 -150 -178 -138 -35 9 -28 20 54 87 104 84 124 93 124 51z m-2813 -77 c7
-25 13 -75 13 -113 0 -79 70 -202 115 -202 27 0 26 -6 -5 -40 -44 -49 -79 -53
-53 -6 16 28 1 41 -92 79 -188 76 -202 121 -81 258 71 81 87 85 103 24z m200
-20 c37 -25 85 -55 105 -67 43 -26 -70 -183 -134 -186 -83 -5 -132 123 -84
222 43 90 29 86 113 31z m1002 -53 c206 -101 329 -295 346 -542 13 -194 -25
-275 -45 -95 -21 194 -41 181 -33 -22 7 -203 -14 -272 -99 -319 -128 -70 -150
-95 -117 -135 26 -32 -66 -31 -98 1 -15 15 80 129 102 125 60 -12 84 290 34
415 -16 38 -17 38 -18 2 -1 -29 -15 -19 -58 40 -31 43 -89 106 -128 141 -43
38 -82 97 -97 145 -13 45 -32 82 -41 82 -9 0 -6 -25 6 -55 38 -98 26 -310 -25
-418 l-45 -97 -12 104 c-15 134 -41 159 -41 41 0 -157 -22 -180 -124 -127 -46
24 -52 24 -43 0 17 -43 -5 -34 -82 34 -93 81 -140 236 -122 395 9 80 7 104 -8
83 -11 -16 -21 -61 -21 -100 0 -38 -15 -110 -33 -160 -45 -128 -46 -410 -1
-494 56 -104 11 -124 -78 -35 -51 50 -51 50 -39 5 10 -37 -1 -31 -56 30 -166
183 -142 503 60 778 183 250 604 332 916 178z m1877 -21 c190 -133 194 -139
194 -362 l0 -198 -105 40 c-105 41 -175 100 -175 149 0 14 -14 31 -32 38 -44
17 -20 392 26 392 5 0 46 -26 92 -59z m-446 -11 c0 -37 -47 -39 -76 -4 -17 19
-10 26 27 30 32 2 49 -7 49 -26z m-834 -175 c-8 -14 -16 -31 -16 -38 0 -8 -8
-21 -18 -30 -11 -10 -12 -5 -2 11 12 22 8 26 -17 16 -21 -8 -33 -3 -33 15 0
24 28 40 86 49 9 1 9 -9 0 -23z m74 -35 c-31 -19 10 -158 47 -163 12 -2 39 -4
58 -5 59 -3 37 -42 -23 -42 -53 0 -58 -7 -68 -90 -6 -49 -17 -104 -23 -121
-18 -45 68 -79 199 -79 108 0 108 0 121 -70 8 -39 31 -93 53 -121 62 -78 37
-97 -203 -146 -241 -50 -288 -42 -339 54 -11 20 -61 58 -111 85 -95 50 -110
77 -64 116 50 41 303 -175 282 -241 -6 -20 -6 -37 1 -37 20 0 130 60 130 72 0
6 -8 5 -19 -1 -35 -22 -46 33 -12 66 31 31 35 31 59 -2 37 -49 52 -23 52 86 0
87 -4 95 -55 104 -30 5 -69 15 -85 22 -22 10 -45 -12 -80 -77 -54 -99 -82 -91
-31 8 45 87 40 97 -50 112 -49 8 -78 23 -73 37 5 13 21 20 37 16 158 -40 176
-25 177 142 0 67 -6 75 -50 75 -27 0 -50 9 -50 20 0 11 23 20 50 20 56 0 58 4
30 99 -20 69 4 113 46 87 10 -6 7 -18 -6 -26z m-147 -96 c27 -16 30 -26 12
-48 -13 -15 -18 -48 -12 -72 8 -30 3 -44 -17 -44 -20 0 -36 38 -50 115 -22
117 -12 185 16 110 9 -23 31 -50 51 -61z m389 -15 c120 -61 134 -90 89 -185
l-34 -72 -67 125 c-37 69 -77 138 -91 154 -34 41 -12 36 103 -22z m-2010 -77
c-53 -91 -86 -124 -105 -106 -6 6 24 56 65 112 91 122 113 118 40 -6z m1012
-27 c221 -232 234 -405 43 -588 -133 -127 -458 -168 -652 -82 -85 38 -140 86
-65 58 40 -15 38 5 -10 110 -40 90 -51 299 -21 427 l14 60 33 -77 c41 -95 42
-102 4 -133 -52 -43 -40 -212 19 -271 107 -107 252 -14 209 136 -15 53 -13 55
63 55 50 0 79 9 79 25 1 17 7 15 20 -5 17 -25 26 -22 60 20 l39 50 1 -71 c0
-131 114 -199 216 -128 124 88 4 363 -139 318 -37 -12 -41 -8 -30 34 7 26 13
67 13 92 0 63 21 57 104 -30z m979 -147 c29 -18 -2 -73 -49 -85 -46 -12 -80 7
-39 21 14 5 25 34 25 64 0 66 27 101 37 49 4 -20 16 -42 26 -49z m-83 30 c0
-21 -11 -28 -32 -20 -17 7 -40 12 -50 12 -10 0 -18 9 -18 20 0 11 23 20 50 20
33 0 50 -11 50 -32z m-840 -174 c0 -46 -41 -69 -102 -56 -72 14 -78 47 -14 65
76 22 116 18 116 -9z m-1040 -140 c28 -56 79 -122 114 -145 59 -40 61 -45 30
-77 -32 -31 -32 -37 0 -93 l34 -59 -71 0 c-60 0 -69 6 -57 35 25 62 49 151 37
139 -6 -6 -33 13 -61 42 -27 30 -43 43 -36 29 18 -36 -6 -31 -83 17 -59 36
-67 51 -67 126 0 150 84 143 160 -14z m1769 48 c6 -10 6 -33 -1 -51 -15 -38
-68 -5 -68 41 0 31 51 38 69 10z m-1295 -53 c-65 -57 -80 -60 -114 -19 -20 24
-19 31 3 38 15 5 41 13 57 19 88 29 111 13 54 -38z m1036 -133 c49 -44 90 -92
90 -108 0 -16 -38 10 -85 58 -47 47 -107 101 -135 119 -47 30 -47 32 -5 21 24
-6 85 -46 135 -90z m-129 31 c60 -40 179 -151 179 -166 0 -62 -86 -56 -143 10
-35 39 -89 85 -122 101 -55 29 -57 32 -22 59 47 35 49 35 108 -4z m371 -218
c-68 -59 -93 -69 -180 -69 l-100 0 129 69 c181 96 260 96 151 0z m-648 4 c-4
-22 4 -29 25 -21 17 7 31 25 31 41 0 16 10 23 21 16 12 -7 17 -26 10 -43 -7
-19 3 -34 29 -40 49 -13 52 -37 7 -54 -19 -8 -50 2 -73 23 -23 19 -34 23 -25
8 12 -21 6 -24 -29 -13 -33 11 -41 8 -30 -11 12 -19 2 -21 -39 -11 -32 8 -50
6 -43 -5 7 -10 -10 -24 -36 -31 -27 -6 -63 -17 -80 -24 -23 -9 -32 0 -32 30 0
24 13 42 30 42 17 0 30 -9 30 -20 0 -11 10 -20 21 -20 12 0 16 8 10 19 -6 10
7 24 30 31 30 10 37 24 28 54 -15 47 21 78 81 68 24 -4 38 -20 34 -39z m-284
-48 c0 -35 -59 -31 -73 5 -16 42 -38 37 -42 -10 -2 -31 10 -40 51 -41 51 -1
51 -3 11 -19 -24 -9 -49 -27 -56 -39 -27 -42 -50 -19 -45 44 8 87 31 121 76
109 21 -6 38 0 38 13 1 31 39 -30 40 -62z m1436 -23 c5 -15 1 -23 -8 -17 -10
6 -15 -55 -11 -138 8 -186 -7 -239 -48 -167 -15 28 -29 68 -30 90 -1 22 -7 29
-12 16 -7 -18 -25 -14 -63 14 -81 59 -273 95 -362 68 -38 -11 -45 -9 -31 14
29 48 -49 -17 -173 -145 -109 -112 -114 -115 -147 -78 -39 43 26 135 89 126
19 -2 21 0 5 7 -36 16 -31 44 8 41 40 -4 59 38 23 52 -45 17 -130 -24 -96 -46
24 -15 22 -18 -12 -19 -59 0 -73 22 -33 52 27 20 28 27 7 27 -16 1 -43 -12
-60 -27 -81 -72 -227 -132 -259 -107 -40 33 -15 -15 41 -78 28 -31 32 -47 15
-57 -13 -9 -30 -4 -38 9 -11 18 -19 16 -28 -7 -14 -38 -85 -43 -100 -7 -6 15
-10 11 -11 -10 -3 -57 -168 -49 -200 10 -13 25 -19 31 -15 13 8 -27 -1 -29
-69 -11 -43 12 -75 31 -72 42 9 25 241 50 251 27 10 -24 63 -19 63 5 0 12 -9
16 -20 9 -11 -7 -20 2 -20 20 0 18 -9 27 -20 20 -11 -7 -20 -5 -20 4 0 25 117
71 149 59 15 -6 62 7 104 29 46 24 104 37 142 33 36 -4 65 0 65 9 0 9 -11 16
-25 17 -14 0 -8 13 14 30 27 20 92 29 221 29 212 0 597 36 658 61 57 24 117
15 128 -19z m-1445 -135 c-1 -70 -43 -83 -56 -18 -10 54 -2 71 34 71 13 0 22
-24 22 -53z m237 34 c-27 -27 -179 -58 -197 -40 -12 12 -1 19 30 19 27 0 60 8
73 16 27 17 110 22 94 5z m-488 -19 c0 -10 5 -33 12 -50 9 -23 0 -32 -30 -32
-44 0 -50 15 -30 68 13 34 48 44 48 14z m160 -45 c0 -26 -11 -38 -33 -33 -47
9 -51 67 -5 71 26 2 38 -11 38 -38z m1054 -97 c22 0 27 -13 18 -48 -7 -30 -2
-53 13 -59 14 -5 5 -11 -19 -11 -24 -1 -49 7 -56 18 -7 11 -34 20 -61 20 -29
0 -49 12 -49 29 0 36 60 73 97 60 14 -5 40 -9 57 -9z m672 -114 c-31 -13 -67
-25 -81 -25 -13 -1 -36 -19 -50 -41 -36 -58 -55 -49 -55 27 0 51 15 80 64 120
l64 53 57 -55 58 -55 -57 -24z m-397 32 c101 -60 79 -120 -34 -90 -84 22 -101
43 -76 89 27 52 23 52 110 1z m-1509 -41 c55 -55 62 -72 50 -135 -25 -134 -42
-134 -116 -2 -31 54 -70 107 -88 117 -27 15 -23 23 26 48 32 17 60 32 61 33 2
1 32 -26 67 -61z m1391 -51 c23 -35 25 -46 6 -35 -46 26 -97 74 -97 91 0 31
57 -5 91 -56z m-641 10 c33 0 49 -4 36 -9 -14 -6 -53 -36 -88 -68 -74 -70
-134 -74 -253 -17 -99 48 -99 50 -7 65 37 6 77 21 90 33 14 15 48 18 92 9 39
-7 97 -13 130 -13z m-561 -24 c37 -16 73 -23 79 -17 7 6 12 -7 12 -30 0 -22
-14 -46 -31 -53 -21 -8 -29 -1 -25 23 5 27 -11 36 -69 41 -72 6 -91 22 -62 51
18 17 18 17 96 -15z m991 -12 c0 -36 -9 -39 -85 -27 -99 15 -103 17 -86 46 26
42 171 26 171 -19z m-260 -38 c0 -10 -25 -24 -55 -31 -30 -7 -73 -18 -94 -25
-34 -10 -36 -8 -10 18 50 50 159 76 159 38z m158 -14 c72 -15 82 -38 17 -44
-67 -6 -138 15 -125 37 14 22 25 23 108 7z m363 -11 c102 -30 120 -90 26 -88
-37 0 -67 7 -67 15 0 8 -13 10 -30 3 -16 -6 -30 -1 -30 12 0 13 -8 18 -19 12
-10 -6 -25 -1 -33 12 -9 14 -6 18 9 9 14 -9 23 -2 23 17 0 37 21 38 121 8z
m-1501 -67 c0 -57 -29 -67 -49 -17 -7 19 -1 41 13 50 36 23 36 23 36 -33z
m1306 16 c51 -27 57 -36 27 -42 -63 -13 -133 13 -120 46 14 37 15 37 93 -4z
m-189 -19 c52 -12 143 -81 143 -108 0 -7 -37 -38 -81 -68 l-82 -54 -79 42
c-44 22 -93 41 -109 41 -25 0 -26 8 -7 45 39 75 104 137 134 126 15 -6 52 -17
81 -24z"/>
<path d="M2694 5124 c-126 -138 -148 -620 -41 -848 107 -224 376 -436 555
-436 70 0 59 18 -20 32 -451 82 -720 719 -498 1177 53 109 54 130 4 75z"/>
<path d="M2046 4798 c86 -71 110 -160 78 -296 -17 -73 -16 -98 5 -119 23 -23
30 -6 42 106 27 251 -14 356 -140 365 l-58 5 73 -61z"/>
<path d="M4166 4730 c140 -170 215 -311 303 -572 78 -231 97 -191 25 55 -53
185 -158 380 -274 513 -132 149 -176 153 -54 4z"/>
<path d="M3073 4589 c7 -19 -2 -29 -26 -29 -20 -1 -58 -17 -83 -36 l-46 -35
86 -4 c93 -3 176 -72 176 -144 0 -20 14 -42 31 -49 57 -22 27 -101 -41 -109
-85 -9 -106 -38 -40 -55 120 -30 215 237 108 303 -10 6 -18 29 -18 51 0 22 -9
35 -20 28 -11 -7 -20 -4 -20 6 0 11 -19 24 -42 30 -23 6 -37 20 -30 31 6 10
-1 24 -17 30 -19 7 -25 1 -18 -18z"/>
<path d="M4088 4472 c-7 -18 -24 -32 -38 -32 -14 0 -31 -13 -37 -30 -7 -16
-25 -30 -40 -30 -37 0 -46 -30 -43 -136 4 -89 103 -224 165 -224 15 0 21 -10
14 -22 -7 -12 14 -7 47 10 33 17 88 33 123 36 41 3 59 13 52 30 -5 14 -2 26 8
26 27 0 47 114 33 188 -26 136 -247 280 -284 184z m195 -105 c90 -81 18 -234
-108 -231 -36 1 -90 2 -120 3 -42 0 -55 10 -55 41 0 22 8 40 18 40 11 0 25 27
32 60 24 108 156 157 233 87z"/>
<path d="M2800 4370 c-30 -36 -11 -156 30 -190 24 -20 23 -13 -2 39 -24 48
-27 76 -11 122 23 66 19 73 -17 29z"/>
<path d="M1540 4245 c0 -43 45 -145 64 -145 11 0 15 -13 9 -30 -23 -59 123
-35 270 44 75 41 137 81 137 89 0 36 -44 35 -114 -2 -108 -58 -228 -54 -304
11 -34 28 -62 43 -62 33z"/>
<path d="M3511 3114 c-38 -57 -15 -147 38 -147 25 0 30 17 24 87 -9 110 -22
122 -62 60z"/>
<path d="M2175 3070 c-19 -26 -35 -53 -35 -60 0 -39 -62 -60 -169 -56 -144 4
-199 -17 -134 -53 200 -106 510 37 398 184 -23 30 -28 28 -60 -15z"/>
<path d="M3642 1775 c0 -25 6 -34 11 -20 15 36 47 10 47 -39 0 -32 -6 -36 -28
-18 -21 18 -29 14 -38 -18 -9 -34 -4 -39 28 -29 31 9 38 2 38 -41 0 -33 8 -47
22 -39 12 7 17 30 12 51 -6 21 -2 43 8 49 11 7 11 25 1 43 -10 18 -13 48 -8
69 8 29 -2 37 -43 37 -41 0 -52 -9 -50 -45z"/>
<path d="M3825 1284 c-70 -10 -55 -72 26 -111 71 -33 72 -33 58 9 -8 27 -3 49
14 60 21 14 20 17 -6 18 -19 0 -37 7 -40 15 -4 8 -27 12 -52 9z"/>
<path d="M763 4864 c24 -55 245 -384 260 -384 35 0 14 46 -104 221 -97 144
-188 239 -156 163z"/>
<path d="M340 4624 c0 -9 12 -33 27 -54 25 -34 22 -42 -33 -79 -96 -65 -93
-102 4 -52 l82 42 75 -121 c41 -66 86 -120 100 -120 39 0 30 28 -45 137 -88
128 -88 135 12 151 111 18 152 -14 107 -82 -44 -67 -28 -96 26 -46 126 117
-19 231 -204 161 -43 -17 -55 -13 -83 30 -32 48 -68 65 -68 33z"/>
<path d="M680 4085 c38 -121 70 -185 94 -185 35 0 33 12 -18 135 -46 111 -108
152 -76 50z"/>
<path d="M580 4095 c0 -29 55 -190 72 -212 31 -40 41 34 15 103 -40 102 -87
161 -87 109z"/>
<path d="M480 4075 c0 -38 69 -212 94 -237 44 -44 40 16 -8 137 -46 115 -86
161 -86 100z"/>
<path d="M552 3628 c-198 -27 -230 -36 -205 -62 23 -23 479 41 488 69 10 30
-19 29 -283 -7z"/>
<path d="M1491 1409 c-17 -18 -42 -29 -55 -24 -13 4 -41 -10 -63 -32 -25 -25
-32 -43 -18 -48 13 -4 17 -22 10 -40 -9 -25 -4 -29 27 -16 21 9 55 16 75 15
21 -1 32 3 26 10 -6 6 9 28 33 48 49 41 34 49 -32 16 -30 -15 -26 -6 14 27 36
30 50 54 37 62 -12 7 -36 -1 -54 -18z"/>
<path d="M1551 1242 c-20 -33 41 -66 66 -35 13 14 17 33 9 40 -18 19 -62 16
-75 -5z"/>
<path d="M4580 1091 c0 -6 25 -23 55 -38 30 -16 90 -63 132 -104 81 -79 79
-67 50 -264 -2 -14 -20 -25 -39 -25 -19 0 -41 -18 -48 -40 -10 -30 -30 -40
-86 -40 -55 -1 -66 -6 -44 -20 23 -15 18 -19 -25 -20 -30 0 -55 -9 -55 -20 0
-11 -31 -20 -70 -20 -38 0 -70 -9 -70 -20 0 -11 -27 -20 -60 -20 -33 0 -60 -9
-60 -20 0 -11 -32 -20 -71 -20 -40 0 -88 -9 -108 -20 -32 -16 -238 -56 -451
-87 -33 -4 -123 -27 -200 -50 -77 -22 -158 -45 -180 -50 -86 -18 350 -12 508
8 998 125 1532 480 1127 748 -91 60 -305 145 -305 122z"/>
<path d="M1782 1039 c-802 -236 -624 -640 348 -789 192 -30 891 -66 870 -46
-35 36 -294 116 -400 125 -70 6 -144 16 -165 23 -21 6 -116 14 -212 17 -95 3
-186 9 -203 15 -16 5 -66 17 -110 26 -44 8 -102 30 -130 48 -27 19 -77 36
-110 40 -33 3 -63 14 -67 24 -3 10 -19 18 -35 18 -15 0 -28 9 -28 20 0 11 -13
20 -29 20 -31 0 -53 51 -44 105 6 42 81 115 117 115 19 1 17 6 -4 20 -27 17
-27 19 0 20 17 0 97 45 178 100 81 55 155 100 165 100 9 0 17 9 17 20 0 25 -3
25 -158 -21z"/>
</g>
</svg>
